<svg width="100" height="97" viewBox="0 0 100 97" fill="none" xmlns="http://www.w3.org/2000/svg">
<g clip-path="url(#clip0_177:37)">
<path d="M92.3101 23.835L92.0093 24.0457C91.9301 23.9332 91.818 23.845 91.6867 23.792C91.5554 23.7391 91.4107 23.7237 91.2703 23.7477C90.8364 23.8571 90.4326 24.0538 90.0864 24.3246L82.1168 29.9058C81.7279 30.1379 81.4007 30.452 81.161 30.8237C81.0956 30.9436 81.069 31.079 81.0842 31.2132C81.0995 31.3475 81.156 31.4745 81.2468 31.5785L80.9372 31.7906L75.0748 24.2693L77.1568 22.5406L77.4383 22.8257C77.0067 23.3807 76.8104 24.0689 76.8883 24.7543C77.2122 25.7991 77.7702 26.7652 78.5241 27.587L78.8767 28.0522C79.3028 28.5848 79.6037 28.8767 79.7793 28.919C79.9549 28.9613 80.2514 28.846 80.6566 28.5725L83.8951 26.303L82.6782 24.7475C82.2633 24.1335 81.7225 23.6046 81.0883 23.192C80.8769 23.082 80.6434 23.0157 80.403 22.9973C80.1627 22.979 79.9208 23.0091 79.6936 23.0856L79.5036 22.838L82.2068 20.947L82.409 21.208C82.1375 21.5416 82.0071 21.9592 82.0434 22.379C82.238 23.0354 82.5868 23.6416 83.0638 24.1521L83.2272 24.3642L84.4441 25.9211L88.9393 22.7712C89.443 22.418 89.6984 22.1199 89.6912 21.8847C89.5432 21.3864 89.274 20.9279 88.9053 20.5459C88.2965 19.7576 87.8408 19.2075 87.538 18.8956C87.2791 18.6165 86.9926 18.3614 86.6824 18.1339C86.2876 17.8817 85.8457 17.7028 85.3804 17.6068C84.7646 17.4912 84.1367 17.4432 83.5092 17.4641L83.4374 17.0236L86.2319 16.0444L92.3101 23.835Z" fill="#161615"/>
<path d="M83.6929 13.6839L83.4497 13.9636C83.3654 13.8952 83.2631 13.8498 83.1536 13.8322C83.0442 13.8147 82.9319 13.8257 82.8286 13.864C82.5379 14.0016 82.2884 14.2062 82.1031 14.4592L78.7926 18.3593C78.5782 18.5718 78.429 18.8357 78.3609 19.1225C78.3594 19.2325 78.3839 19.3414 78.4326 19.4412C78.4813 19.541 78.5529 19.6292 78.6422 19.6994L78.4581 19.9164C78.0743 19.7472 77.6664 19.6323 77.2475 19.5754C76.8283 19.5239 76.4039 19.5256 75.9853 19.5807L75.7419 19.4007L76.8567 18.0928L76.4249 18.0437C74.5415 17.8575 73.375 17.5963 72.9432 17.2621C72.7828 17.1493 72.6539 17.0012 72.5675 16.8306C72.4811 16.66 72.4399 16.4719 72.4474 16.2828C72.4774 15.8309 72.6687 15.4022 72.9899 15.0669L76.8891 10.4794C77.1101 10.251 77.2718 9.9768 77.3612 9.67873C77.3775 9.5736 77.3636 9.46627 77.3208 9.36806C77.2779 9.26984 77.2079 9.18449 77.118 9.12098L77.354 8.84827L79.7958 10.7127L79.5583 10.9854C79.4739 10.9153 79.3714 10.8679 79.2612 10.848C79.151 10.8281 79.0372 10.8364 78.9316 10.8722C78.6401 11.0148 78.3904 11.2236 78.2047 11.4798L74.8351 15.444C74.5855 15.687 74.4132 15.9917 74.3379 16.3231C74.34 16.448 74.3747 16.5704 74.4387 16.6796C74.5028 16.7888 74.5942 16.8814 74.7049 16.9491C74.9838 17.1313 75.293 17.2678 75.6196 17.3529C76.137 17.4983 76.6644 17.61 77.1979 17.687L80.7963 13.4589C81.0208 13.2314 81.1808 12.9535 81.2612 12.6515C81.277 12.5459 81.2619 12.4382 81.2178 12.3401C81.1736 12.242 81.102 12.1573 81.0106 12.095L81.2482 11.8167L83.6929 13.6839Z" fill="#161615"/>
<path d="M69.1155 5.71575L67.8605 7.23583L67.5725 7.06251C67.6882 6.37405 67.5861 5.66859 67.2789 5.03513C67.1478 4.76604 66.9609 4.52471 66.7293 4.32553C66.4977 4.12636 66.2262 3.97344 65.9309 3.87584C65.7238 3.79874 65.5024 3.76168 65.2799 3.76695C65.0575 3.77222 64.8383 3.81966 64.6355 3.90647C64.4413 3.99084 64.2676 4.11195 64.1247 4.26243C63.9819 4.41291 63.8732 4.58954 63.8051 4.78139C63.674 5.10362 63.6809 5.46159 63.8244 5.77902C64.1862 6.34842 64.639 6.86121 65.1666 7.29909L65.2257 7.3537C66.6707 8.71079 67.2135 9.87089 66.8551 10.8447C66.7427 11.1888 66.5533 11.5058 66.3001 11.7744C66.0469 12.0431 65.7358 12.257 65.3876 12.4016C64.6358 12.6886 63.7953 12.6857 63.0457 12.3934C62.6053 12.245 62.199 12.0181 61.8483 11.7251C61.4479 11.3935 61.0999 11.009 60.8149 10.5835L61.9534 9.23191L62.2289 9.39957C62.1332 9.97071 62.2031 10.5557 62.4311 11.0921C62.5273 11.3089 62.671 11.5041 62.8525 11.6645C63.0339 11.825 63.2492 11.9471 63.4841 12.023C63.8771 12.1662 64.3134 12.1592 64.701 12.0033C64.8872 11.9325 65.0546 11.8236 65.1914 11.6845C65.3282 11.5454 65.4312 11.3795 65.4927 11.1985C65.554 11.0341 65.5792 10.8596 65.5669 10.6856C65.5545 10.5115 65.5047 10.3417 65.4207 10.1866C65.1061 9.69645 64.7109 9.2572 64.2498 8.88544L64.0599 8.71894C62.4829 7.32321 61.8849 6.11569 62.2663 5.0964C62.3851 4.73255 62.5876 4.3982 62.8591 4.11742C63.1307 3.83664 63.4646 3.61653 63.8367 3.47276C64.6626 3.18225 65.5733 3.19558 66.3893 3.51022C66.9224 3.69312 67.415 3.9685 67.8417 4.32237C68.3281 4.73256 68.7563 5.20103 69.1155 5.71575Z" fill="#161615"/>
<path d="M52.7376 1.72316C52.9828 1.47402 53.2782 1.27389 53.6063 1.13461C53.8894 1.01377 54.2033 0.973123 54.5103 1.0174C54.6805 1.02569 54.8466 1.06941 54.997 1.14543C55.1473 1.22145 55.2783 1.32792 55.3803 1.45727C55.5642 1.7661 55.6228 2.12785 55.5451 2.47471L55.5321 2.52382C56.0569 2.18495 56.6294 1.91769 57.2327 1.72998C57.7272 1.57424 58.2517 1.52326 58.7692 1.58064C59.0472 1.60332 59.3171 1.67998 59.5625 1.80574C59.8079 1.9315 60.0234 2.1037 60.1956 2.31171C60.3572 2.52803 60.4709 2.77325 60.5294 3.03246C60.5879 3.29167 60.59 3.5594 60.5359 3.81947C60.4761 4.19605 60.3276 4.55498 60.101 4.86954C59.8745 5.18409 59.5759 5.44621 59.2276 5.63624C57.8517 6.31651 56.3802 6.8068 54.8578 7.09221L54.6614 8.41999C54.5645 8.84608 54.6083 9.29008 54.7866 9.69183C54.8701 9.83757 54.9898 9.96162 55.1356 10.0533C55.2814 10.145 55.4487 10.2014 55.6228 10.2176C55.927 10.2712 56.2413 10.2181 56.5073 10.0683C56.848 9.77349 57.1064 9.40324 57.2593 8.99073C57.3596 8.75479 57.536 8.55489 57.7632 8.41933C57.964 8.2889 58.2097 8.23594 58.4503 8.27132C58.5671 8.28404 58.6798 8.31967 58.7812 8.37604C58.8826 8.43241 58.9704 8.50825 59.0391 8.59864C59.1119 8.69088 59.164 8.79617 59.1923 8.90815C59.2207 9.02013 59.2246 9.13649 59.2039 9.24996C59.1409 9.52933 58.9993 9.78731 58.7942 9.99668C58.5891 10.206 58.328 10.3589 58.0387 10.4392C57.2446 10.7354 56.3796 10.8174 55.5393 10.6765C54.754 10.6396 54.0097 10.3333 53.4452 9.81454C53.2413 9.52625 53.1025 9.20116 53.0372 8.8597C52.9719 8.51824 52.9816 8.16782 53.0658 7.83011L53.8445 2.5408C53.8927 2.33181 53.8882 2.11503 53.8315 1.90797C53.8129 1.84518 53.7749 1.7892 53.7222 1.74713C53.6696 1.70507 53.605 1.67889 53.5365 1.67204C53.4375 1.65741 53.336 1.67471 53.2486 1.72116C53.1436 1.78247 53.0529 1.86311 52.9817 1.95841L52.7376 1.72316ZM54.9291 6.59157C55.9417 6.39286 56.9125 6.03645 57.802 5.53667C58.0563 5.37624 58.2722 5.16692 58.4356 4.92232C58.599 4.67771 58.7062 4.40327 58.7504 4.11682C58.8338 3.70201 58.7548 3.27265 58.5282 2.90909C58.4287 2.74936 58.2909 2.61403 58.1262 2.51383C57.9614 2.41364 57.7743 2.35141 57.5796 2.33219C57.2279 2.29786 56.8733 2.35985 56.5577 2.51084C56.1388 2.69427 55.7562 2.94428 55.4264 3.25006L54.9291 6.59157Z" fill="#161615"/>
<path d="M47.8516 1.04822L50.9527 8.47662C51.0589 8.75857 51.209 9.02388 51.3981 9.26363C51.4976 9.42121 51.6571 9.53675 51.8437 9.5863L51.863 9.92045L48.8268 10.0894L48.8073 9.74846C48.9625 9.73694 49.1083 9.67365 49.2189 9.56981C49.3062 9.45198 49.3437 9.30746 49.324 9.16474C49.3112 9.02521 49.2873 8.88687 49.2521 8.75083C49.2061 8.58989 49.147 8.40982 49.075 8.20524L46.9881 3.09058L45.7919 7.92153C45.7494 8.08674 45.7185 8.25446 45.6991 8.42351C45.6809 8.55506 45.6748 8.68789 45.681 8.82043C45.6869 9.07634 45.7637 9.3263 45.9035 9.54534C45.9644 9.63294 46.0431 9.70824 46.135 9.76677C46.227 9.82531 46.3304 9.86591 46.439 9.88631L46.4597 10.215L43.9265 10.3513L43.9072 10.0172C44.2415 9.81957 44.5003 9.52592 44.6462 9.17905C44.928 8.57877 45.1474 7.95398 45.3012 7.31334L46.9564 1.10133L47.8516 1.04822Z" fill="#161615"/>
<path d="M37.4662 2.49925C38.0155 2.34609 38.5947 2.31521 39.1587 2.40902C39.7227 2.50282 40.2562 2.71874 40.7177 3.04002C41.7716 3.7662 42.5113 4.83019 42.7995 6.03439C43.1893 7.20492 43.117 8.46978 42.5959 9.59351C42.3661 10.0891 42.0196 10.5283 41.583 10.8773C41.1464 11.2264 40.6313 11.4762 40.0771 11.6074C39.528 11.7602 38.9494 11.7916 38.3854 11.6993C37.8215 11.607 37.2873 11.3933 36.8242 11.0748C35.7795 10.3514 35.0459 9.29474 34.7581 8.0994C34.3647 6.92145 34.4339 5.64834 34.9531 4.51498C35.1821 4.01964 35.5275 3.58055 35.9631 3.23116C36.3986 2.88176 36.9128 2.63145 37.4662 2.49925ZM37.6101 2.97176C37.2673 3.05605 36.9589 3.23553 36.7245 3.48706C36.4901 3.73858 36.3405 4.05072 36.2946 4.38345C36.1684 5.44847 36.2844 6.52672 36.6349 7.54565C36.8775 8.62874 37.3617 9.65022 38.0549 10.5415C38.2653 10.8139 38.559 11.0182 38.8962 11.1269C39.2334 11.2356 39.5977 11.2433 39.9397 11.149C40.2828 11.0639 40.591 10.8831 40.8243 10.6299C41.0576 10.3767 41.2051 10.0629 41.2479 9.7292C41.3866 8.66045 41.2703 7.57598 40.9076 6.55552C40.6708 5.4787 40.1908 4.46321 39.5006 3.57879C39.2865 3.30898 38.9915 3.10669 38.6541 2.9984C38.3166 2.89011 37.9524 2.88077 37.6094 2.97176L37.6101 2.97176Z" fill="#161615"/>
<path d="M31.2892 4.78101L31.4396 5.09534C31.3381 5.13723 31.2505 5.20441 31.1861 5.28981C31.1217 5.3752 31.0831 5.47556 31.0742 5.58017C31.0699 5.88997 31.1507 6.19553 31.3087 6.46674L33.6772 11.3147C33.7886 11.5919 33.9734 11.8375 34.2139 12.0274C34.3168 12.0802 34.4312 12.1098 34.5481 12.1142C34.665 12.1186 34.7813 12.0975 34.8883 12.0526L35.0063 12.3001C34.6894 12.5525 34.4096 12.844 34.1744 13.1669C33.9357 13.5058 33.7444 13.8726 33.6051 14.2581L33.2778 14.3945L29.7383 7.15286C29.6279 6.85841 29.4357 6.5975 29.1821 6.39782C29.094 6.33685 28.9895 6.30081 28.8807 6.29392C28.7719 6.28704 28.6633 6.30968 28.5675 6.35902L28.3977 6.04319L31.2892 4.78101ZM34.7516 15.4072C34.8918 15.3434 35.0446 15.3081 35.2001 15.304C35.3556 15.2999 35.5104 15.3269 35.6541 15.3833C35.7997 15.4304 35.9335 15.5053 36.0474 15.6034C36.1612 15.7014 36.2528 15.8205 36.3162 15.9533C36.3827 16.0854 36.4198 16.229 36.4251 16.3752C36.4304 16.5214 36.4038 16.6671 36.3471 16.8031C36.2981 16.9431 36.2187 17.0719 36.1138 17.1809C36.0089 17.2899 35.8809 17.3768 35.7383 17.4359C35.6006 17.5022 35.4498 17.5404 35.2955 17.5478C35.1413 17.5552 34.987 17.5317 34.8429 17.4789C34.6967 17.4276 34.5629 17.349 34.4492 17.248C34.3355 17.1469 34.2443 17.0253 34.1809 16.8904C34.116 16.7579 34.0797 16.6144 34.0744 16.4685C34.0691 16.3225 34.0949 16.1771 34.15 16.0407C34.1976 15.901 34.2758 15.7723 34.3794 15.6631C34.4831 15.554 34.6099 15.4668 34.7516 15.4072Z" fill="#161615"/>
<path d="M26.2899 7.06213L26.4935 7.36082C26.3985 7.41485 26.3208 7.49233 26.2686 7.58492C26.2164 7.67751 26.1917 7.78175 26.1971 7.88661C26.2422 8.19479 26.3689 8.4872 26.5655 8.73638L29.4312 12.94C29.5762 13.1988 29.793 13.4152 30.0581 13.566C30.168 13.6009 30.2846 13.6129 30.3998 13.6011C30.5151 13.5894 30.6264 13.5541 30.7259 13.4977L30.8835 13.7323C30.5992 14.0201 30.3611 14.3459 30.1769 14.6993C29.9922 15.0587 29.854 15.4379 29.7652 15.8286L29.47 16.0148L28.4496 14.507C28.3891 15.1488 28.2485 15.7815 28.0307 16.3919C27.9096 16.7691 27.6674 17.1013 27.3377 17.3419C27.2294 17.4158 27.1047 17.4654 26.9732 17.4869C26.8416 17.5084 26.7067 17.5014 26.5785 17.4661C26.2968 17.3775 26.0592 17.194 25.9107 16.9505C25.8287 16.8389 25.7722 16.7122 25.745 16.5787C25.7179 16.4451 25.7207 16.3076 25.7531 16.1751C25.7836 16.0414 25.8421 15.9149 25.9255 15.8032C26.0088 15.6915 26.1151 15.5969 26.238 15.5251C26.4335 15.43 26.6428 15.3633 26.8591 15.3268C27.0914 15.2893 27.315 15.2135 27.5198 15.1031C27.6846 14.995 27.8103 14.8414 27.8796 14.6632C27.9762 14.425 28.0315 14.1734 28.043 13.9185L25.1125 9.62213C24.9557 9.34832 24.7316 9.11438 24.4591 8.94017C24.359 8.89517 24.2481 8.8762 24.1377 8.88506C24.0273 8.89393 23.9214 8.93046 23.8308 8.99078L23.6199 8.69742L26.2899 7.06213Z" fill="#161615"/>
<path d="M11.445 12.9279L11.7328 13.1433C11.6636 13.2261 11.6187 13.3249 11.6029 13.4295C11.5871 13.5341 11.6009 13.6408 11.6428 13.7387C11.7905 14.0128 12.0086 14.2473 12.2769 14.4206L19.8276 20.0441C20.0538 20.2442 20.3348 20.3799 20.6387 20.4355C20.757 20.4362 20.8741 20.4121 20.9815 20.3649C21.0888 20.3178 21.1838 20.2486 21.2598 20.1626L21.4885 20.3359C21.3151 20.6976 21.2004 21.0819 21.1482 21.4761C21.0959 21.8741 21.1019 22.2772 21.1661 22.6737L20.9776 22.9096L19.5829 21.8682C19.7729 22.4553 19.8376 23.0725 19.773 23.6836C19.6984 24.2216 19.4698 24.7301 19.1122 25.1539C18.8303 25.4999 18.4589 25.7708 18.0337 25.9403C17.6086 26.1097 17.1444 26.1719 16.6863 26.1209C15.487 25.9839 14.3588 25.5087 13.4478 24.757C12.3633 24.0152 11.5621 22.9599 11.1649 21.7496C10.9874 21.2704 10.9393 20.7566 11.0251 20.2552C11.1108 19.7538 11.3277 19.2809 11.6558 18.8793C11.925 18.5381 12.2771 18.2635 12.6821 18.0786C13.1137 17.8871 13.5806 17.7775 14.0566 17.756L11.2428 15.6612C11.0012 15.4501 10.7057 15.3022 10.3855 15.2321C10.2754 15.219 10.1637 15.2347 10.0622 15.2774C9.96078 15.3201 9.87341 15.388 9.80974 15.4742L9.51615 15.2588L11.445 12.9279ZM19.0461 21.4706L16.5273 19.5981C15.8017 18.9939 14.9264 18.5737 13.9831 18.3767C13.659 18.3149 13.3231 18.3409 13.0138 18.4516C12.7045 18.5623 12.4345 18.7533 12.2344 19.0027C12.0052 19.261 11.8618 19.5778 11.8222 19.9132C11.7826 20.2486 11.8486 20.5876 12.012 20.8875C12.5409 21.8042 13.2871 22.5921 14.1919 23.1891C14.9624 23.829 15.8963 24.2666 16.9006 24.4583C17.2498 24.5269 17.6123 24.5011 17.9468 24.3841C18.2813 24.267 18.5744 24.0633 18.7928 23.7962C19.0281 23.5024 19.1708 23.1515 19.2044 22.7841C19.2367 22.3408 19.1831 21.8956 19.0461 21.4706Z" fill="#161615"/>
<path d="M8.35682 23.9443L8.68292 24.119C8.62861 24.21 8.60132 24.3133 8.60385 24.4178C8.60639 24.5224 8.63867 24.6244 8.69733 24.713C8.89157 24.9603 9.15083 25.155 9.44932 25.2776L18.2948 29.8037C18.5548 29.9631 18.8553 30.0534 19.1648 30.0649C19.2795 30.0486 19.3885 30.0068 19.483 29.9432C19.5775 29.8796 19.6549 29.7958 19.709 29.6987L19.9702 29.8352C19.8701 30.2241 19.8284 30.6244 19.8464 31.0244C19.8584 31.4239 19.935 31.8193 20.0737 32.1967L19.9054 32.4886L8.62388 26.7281C8.34798 26.562 8.03456 26.4601 7.70919 26.4307C7.59748 26.4373 7.48951 26.4716 7.39627 26.5303C7.30303 26.589 7.22779 26.6699 7.17805 26.7649L6.84492 26.5917L8.35682 23.9443Z" fill="#161615"/>
<path d="M3.82699 33.7912L5.26633 34.2564C5.00117 33.4118 4.79131 32.5525 4.63802 31.6834C4.57472 31.2922 4.59931 30.8928 4.71006 30.5112C4.76834 30.3295 4.87101 30.1634 5.00998 30.0267C5.14895 29.8899 5.32014 29.7862 5.50949 29.7241C5.97356 29.5991 6.4686 29.6252 6.9151 29.7984L12.3054 31.5286C12.5959 31.6406 12.9121 31.6786 13.2229 31.639C13.3351 31.6029 13.4374 31.5435 13.5223 31.4652C13.6072 31.3868 13.6727 31.2916 13.7138 31.1863L13.9879 31.2797C13.9564 31.6726 13.9878 32.0679 14.0808 32.452C14.1679 32.8484 14.3154 33.2308 14.519 33.5868L14.4205 33.8718L7.19709 31.5531C6.88585 31.4266 6.54238 31.3896 6.20913 31.4467C6.08638 31.4946 5.97762 31.57 5.89217 31.6663C5.80672 31.7626 5.74702 31.877 5.71823 31.9998C5.61434 32.3254 5.57429 32.6664 5.60016 33.0057C5.62112 33.4835 5.68637 33.9586 5.79518 34.4256L10.3889 35.8999C10.7418 36.0366 11.1211 36.1019 11.5023 36.0915C11.6244 36.0731 11.7402 36.0284 11.8412 35.9608C11.9421 35.8932 12.0254 35.8043 12.0844 35.7014L12.4047 35.7948C12.3942 36.1596 12.4315 36.5243 12.5155 36.8805C12.6108 37.2927 12.7419 37.6966 12.9077 38.0882L12.8163 38.3611L5.22029 35.9307C4.83005 35.7719 4.40525 35.7038 3.98161 35.7322C3.84343 35.762 3.71471 35.8223 3.60578 35.9082C3.49686 35.9941 3.41093 36.1032 3.35488 36.2265L3.00225 36.123L3.82699 33.7912Z" fill="#161615"/>
<path d="M3.57234 38.454L5.41104 39.2853L5.29455 39.5888C4.56055 39.6301 3.85637 39.8787 3.27294 40.3027C3.02461 40.4816 2.81659 40.706 2.66133 40.9624C2.50607 41.2188 2.40666 41.502 2.36897 41.7955C2.33543 42.0038 2.34602 42.2163 2.39989 42.4207C2.45375 42.6251 2.54984 42.8174 2.68277 42.9862C2.80963 43.1495 2.97137 43.2858 3.15733 43.3862C3.34329 43.4865 3.54932 43.5486 3.76227 43.5686C4.12507 43.6187 4.49412 43.5318 4.78994 43.3266C5.29752 42.8727 5.72651 42.3459 6.06095 41.7655L6.10558 41.6974C7.19084 40.0671 8.27034 39.3128 9.34408 39.4346C9.72398 39.4625 10.0928 39.5685 10.4252 39.7451C10.7575 39.9218 11.0453 40.1649 11.2685 40.4576C11.7292 41.0881 11.9101 41.865 11.7723 42.6208C11.7143 43.0609 11.5676 43.4864 11.3404 43.8741C11.0848 44.3164 10.763 44.7211 10.3848 45.0757L8.74319 44.314L8.86108 44.0222C9.46986 43.9908 10.058 43.8021 10.5617 43.4766C10.764 43.34 10.9334 43.1642 11.0587 42.9609C11.184 42.7577 11.2624 42.5316 11.2886 42.2975C11.3521 41.9029 11.2507 41.5004 11.0059 41.1756C10.893 41.0191 10.7457 40.8877 10.5742 40.7902C10.4026 40.6927 10.2108 40.6316 10.0119 40.6111C9.82888 40.5904 9.64327 40.6056 9.46672 40.6558C9.29017 40.7061 9.12644 40.7902 8.98565 40.9029C8.54627 41.2974 8.17904 41.7583 7.89895 42.2668L7.76155 42.4823C6.66238 44.239 5.54786 45.0537 4.41798 44.9264C4.0174 44.8938 3.62942 44.7774 3.28208 44.5856C2.93474 44.3937 2.63667 44.1311 2.40938 43.8169C1.92376 43.1211 1.73898 42.2751 1.89334 41.4538C1.96539 40.9211 2.14245 40.4061 2.41517 39.9353C2.72846 39.3942 3.11769 38.8959 3.57234 38.454Z" fill="#161615"/>
<path d="M8.50404 73.165L8.80105 72.9494C8.88219 73.0607 8.99592 73.1471 9.12819 73.198C9.26046 73.2488 9.40538 73.2618 9.54539 73.2355C9.97726 73.1192 10.3776 72.9159 10.7189 72.6396L18.5884 66.93C18.9731 66.6916 19.2946 66.3722 19.5277 65.9967C19.5909 65.8757 19.6151 65.7399 19.5975 65.6059C19.5799 65.4719 19.5211 65.3458 19.4284 65.2432L19.7342 65.0261L25.7315 72.453L23.6805 74.2152L23.3939 73.9347C23.8155 73.3728 23.9995 72.6814 23.9093 71.9972C23.5666 70.9577 22.9914 70.0005 22.2227 69.1909L21.8617 68.7314C21.4261 68.2056 21.1199 67.9186 20.9436 67.8792C20.7672 67.8397 20.4728 67.9598 20.0725 68.2398L16.8747 70.5614L18.1195 72.0973C18.5455 72.7046 19.0957 73.2248 19.7374 73.6273C19.9507 73.7338 20.1854 73.7964 20.4261 73.8109C20.6668 73.8253 20.9081 73.7913 21.134 73.7112L21.3283 73.9557L18.6591 75.8903L18.4522 75.6325C18.7177 75.2945 18.8406 74.8749 18.7968 74.4556C18.5905 73.8023 18.2307 73.2017 17.7446 72.6989L17.5774 72.4894L16.3325 70.9522L11.8939 74.1745C11.3965 74.5358 11.1464 74.838 11.1578 75.0731C11.3148 75.569 11.5922 76.0232 11.9678 76.3993C12.5907 77.1778 13.0563 77.7205 13.3647 78.0275C13.6286 78.3025 13.9197 78.5529 14.234 78.7754C14.6333 79.0213 15.0784 79.193 15.5454 79.2816C16.1633 79.3872 16.7921 79.4251 17.4191 79.3941L17.4989 79.8335L14.722 80.8577L8.50404 73.165Z" fill="#161615"/>
<path d="M17.3036 83.1771L17.5418 82.8935C17.6273 82.9605 17.7305 83.0043 17.8402 83.0201C17.9499 83.0358 18.062 83.023 18.1647 82.983C18.4529 82.8407 18.6987 82.6321 18.8795 82.3761L22.12 78.4227C22.3306 78.2067 22.475 77.9404 22.538 77.6525C22.5375 77.5425 22.5111 77.4341 22.4606 77.335C22.4101 77.236 22.337 77.1489 22.2464 77.0802L22.4266 76.8603C22.8134 77.0232 23.2234 77.1315 23.6433 77.1817C24.0634 77.2265 24.4878 77.2179 24.9054 77.1561L25.152 77.3321L24.0607 78.6581L24.4934 78.7002C26.3801 78.8561 27.5513 79.0985 27.9891 79.4257C28.1515 79.5359 28.2831 79.6819 28.3725 79.8512C28.462 80.0204 28.5066 80.2077 28.5025 80.397C28.4806 80.8494 28.297 81.2812 27.9818 81.6216L24.1649 86.272C23.948 86.5039 23.7912 86.7807 23.7072 87.0802C23.6927 87.1856 23.7086 87.2927 23.7532 87.3903C23.7978 87.4878 23.8693 87.572 23.9604 87.6341L23.7293 87.9106L21.254 86.0855L21.4866 85.809C21.5722 85.8777 21.6756 85.9234 21.7862 85.9416C21.8967 85.9597 22.0104 85.9496 22.1154 85.9121C22.4043 85.7648 22.6502 85.5519 22.8313 85.2927L26.1298 81.2742C26.375 81.0273 26.5418 80.7198 26.6113 80.3871C26.6069 80.2623 26.57 80.1405 26.504 80.0323C26.438 79.9241 26.345 79.833 26.233 79.767C25.9508 79.5893 25.6392 79.4578 25.311 79.378C24.791 79.2409 24.2616 79.1378 23.7267 79.0693L20.2043 83.3554C19.9838 83.5865 19.8288 83.867 19.7538 84.1703C19.7399 84.2762 19.7569 84.3836 19.8028 84.481C19.8487 84.5784 19.9219 84.6619 20.0144 84.7227L19.7818 85.0049L17.3036 83.1771Z" fill="#161615"/>
<path d="M32.0244 90.9102L33.2521 89.3699L33.5432 89.5386C33.4398 90.2289 33.5546 90.9327 33.8732 91.5613C34.0091 91.8282 34.2003 92.0666 34.4355 92.262C34.6707 92.4574 34.9449 92.606 35.2419 92.6988C35.4505 92.7726 35.6725 92.8061 35.8949 92.7972C36.1173 92.7884 36.3356 92.7374 36.5368 92.6473C36.7295 92.5598 36.9011 92.4359 37.0412 92.2831C37.1813 92.1304 37.2869 91.952 37.3515 91.759C37.4768 91.4347 37.4636 91.0768 37.3143 90.7617C36.9423 90.1982 36.4803 89.6927 35.9448 89.2633L35.8848 89.2096C34.4154 87.8758 33.8518 86.7244 34.1927 85.7448C34.299 85.399 34.4827 85.0789 34.7311 84.8062C34.9795 84.5335 35.2867 84.3145 35.6323 84.1643C36.3789 83.8652 37.2195 83.8546 37.9743 84.1348C38.4174 84.2761 38.8278 84.4964 39.1837 84.7838C39.5901 85.109 39.945 85.4879 40.2376 85.9088L39.1234 87.2787L38.8449 87.1155C38.9303 86.5428 38.8499 85.9589 38.6123 85.4262C38.5122 85.2109 38.365 85.0181 38.1807 84.8606C37.9963 84.703 37.7789 84.5844 37.5426 84.5123C37.147 84.3754 36.7108 84.3894 36.326 84.5515C36.1411 84.6254 35.9757 84.737 35.8414 84.8783C35.7071 85.0195 35.6071 85.1872 35.5488 85.3691C35.4904 85.5345 35.4683 85.7094 35.4838 85.8833C35.4993 86.0571 35.5521 86.2261 35.639 86.3799C35.9623 86.8649 36.3655 87.2978 36.8332 87.6622L37.0261 87.8256C38.6282 89.1959 39.2478 90.3938 38.8846 91.4192C38.7724 91.785 38.5759 92.1226 38.3094 92.4078C38.0429 92.6929 37.7129 92.9184 37.3434 93.0682C36.5227 93.372 35.6117 93.3733 34.7901 93.0718C34.2537 92.8975 33.7562 92.6301 33.3232 92.2831C32.8294 91.8807 32.3928 91.4192 32.0244 90.9102Z" fill="#161615"/>
<path d="M48.474 94.6394C48.2333 94.8924 47.9415 95.0973 47.6159 95.2419C47.335 95.3673 47.0218 95.413 46.714 95.3737C46.5437 95.3681 46.3768 95.3271 46.225 95.2535C46.0733 95.1799 45.9405 95.0755 45.8361 94.9478C45.6467 94.642 45.5816 94.2811 45.653 93.933L45.6651 93.8837C45.1465 94.231 44.5788 94.5075 43.9788 94.7049C43.4871 94.8687 42.9635 94.9281 42.445 94.879C42.1666 94.8608 41.8953 94.7885 41.6476 94.6667C41.4 94.5449 41.1814 94.3762 41.0055 94.1709C40.84 93.9572 40.7219 93.7138 40.6588 93.4556C40.5956 93.1973 40.5887 92.9296 40.6381 92.6687C40.6912 92.2911 40.8333 91.9298 41.0541 91.6116C41.275 91.2934 41.5689 91.0265 41.9138 90.8308C43.2775 90.1284 44.7402 89.6144 46.2575 89.3045L46.4301 87.9735C46.5193 87.5459 46.4676 87.1026 46.282 86.7037C46.196 86.5593 46.074 86.4372 45.9266 86.3479C45.7792 86.2585 45.6109 86.2048 45.4364 86.1914C45.1313 86.1427 44.8179 86.2008 44.5547 86.355C44.2192 86.6552 43.9675 87.0297 43.822 87.4446C43.7259 87.6822 43.5531 87.8849 43.3283 88.0241C43.1298 88.1578 42.8851 88.2147 42.6438 88.1832C42.5268 88.1724 42.4135 88.1386 42.3111 88.0838C42.2087 88.0291 42.1195 87.9547 42.0492 87.8654C41.9748 87.7743 41.9208 87.6699 41.8904 87.5583C41.8601 87.4468 41.854 87.3305 41.8727 87.2167C41.9307 86.9363 42.0677 86.6761 42.269 86.4634C42.4704 86.2507 42.7287 86.0936 43.0166 86.0087C43.8053 85.6998 44.6689 85.6038 45.5117 85.7312C46.2977 85.7554 47.0475 86.0497 47.6213 86.5594C47.8303 86.8444 47.975 87.1672 48.0464 87.5076C48.1178 87.848 48.1144 88.1986 48.0362 88.5377L47.3524 93.8395C47.3081 94.0493 47.3164 94.266 47.3768 94.4722C47.3965 94.5347 47.4356 94.59 47.489 94.6312C47.5423 94.6725 47.6074 94.6976 47.676 94.7033C47.7753 94.7164 47.8765 94.6974 47.9631 94.6496C48.0669 94.5866 48.1562 94.5045 48.2257 94.408L48.474 94.6394ZM46.1952 89.8062C45.1861 90.0213 44.2217 90.3933 43.3412 90.9074C43.0898 91.072 42.8777 91.2848 42.7187 91.532C42.5596 91.7792 42.4574 92.0554 42.4183 92.3426C42.3424 92.7587 42.429 93.1868 42.6622 93.5467C42.7646 93.7048 42.9048 93.8379 43.0713 93.9355C43.2378 94.033 43.4261 94.0922 43.6211 94.1083C43.9734 94.137 44.3269 94.0693 44.6398 93.9132C45.0554 93.723 45.4335 93.4669 45.7579 93.1558L46.1952 89.8062Z" fill="#161615"/>
<path d="M53.3718 95.2354L50.1374 87.857C50.0262 87.5767 49.8713 87.3138 49.6779 87.0771C49.5756 86.9212 49.414 86.8082 49.2265 86.7617L49.2012 86.4278L52.2344 86.2099L52.26 86.5506C52.105 86.5646 51.9603 86.6302 51.8516 86.7359C51.7665 86.8551 51.7316 87.0002 51.7538 87.1426C51.7691 87.2819 51.7955 87.4199 51.8331 87.5554C51.882 87.7156 51.9443 87.8947 52.02 88.0981L54.1987 93.1792L55.3082 88.3289C55.3477 88.163 55.3757 87.9948 55.3919 87.8255C55.4078 87.6936 55.4115 87.5607 55.4029 87.4283C55.3924 87.1724 55.3112 86.9237 55.1675 86.7069C55.1049 86.6203 55.0249 86.5463 54.9319 86.4892C54.839 86.4322 54.7348 86.3932 54.6258 86.3746L54.5992 86.0463L57.13 85.8691L57.1553 86.2029C56.8245 86.4059 56.571 86.7037 56.4314 87.053C56.1603 87.6578 55.9521 88.2861 55.8098 88.9292L54.266 95.1679L53.3718 95.2354Z" fill="#161615"/>
<path d="M63.731 93.6174C63.1844 93.7794 62.6057 93.8196 62.0401 93.7349C61.4744 93.6502 60.937 93.4428 60.4698 93.129C59.4028 92.4198 58.644 91.3677 58.3342 90.1682C57.9234 89.0039 57.9731 87.7379 58.474 86.6058C58.6949 86.1065 59.0335 85.6617 59.4638 85.3056C59.8942 84.9495 60.4048 84.6915 60.9567 84.5513C61.503 84.3896 62.0811 84.3489 62.6467 84.4321C63.2122 84.5154 63.7503 84.7204 64.2191 85.0315C65.2767 85.7381 66.0293 86.7829 66.3386 87.9736C66.7531 89.1452 66.7067 90.4194 66.2078 91.5612C65.9878 92.0602 65.6503 92.5049 65.221 92.8613C64.7916 93.2177 64.282 93.4763 63.731 93.6174ZM63.5786 93.1472C63.9198 93.0574 64.225 92.8729 64.4549 92.6176C64.6848 92.3623 64.8288 92.0478 64.8687 91.7143C64.9758 90.6473 64.8405 89.5709 64.4717 88.5576C64.2097 87.4784 63.7071 86.4647 62.9979 85.5846C62.7827 85.3156 62.4853 85.116 62.1462 85.0128C61.807 84.9095 61.4426 84.9076 61.1023 85.0074C60.7607 85.0981 60.4557 85.2839 60.2269 85.5408C59.9982 85.7977 59.8563 86.114 59.8195 86.4484C59.7 87.5193 59.8357 88.6019 60.2168 89.6166C60.4729 90.6896 60.9712 91.6973 61.6772 92.5706C61.8962 92.837 62.1947 93.0345 62.5341 93.1374C62.8735 93.2402 63.2378 93.2437 63.5793 93.1472L63.5786 93.1472Z" fill="#161615"/>
<path d="M69.8665 91.236L69.7105 90.9241C69.8113 90.8805 69.8977 90.8119 69.9605 90.7255C70.0234 90.6391 70.0602 90.5381 70.0673 90.4334C70.066 90.1235 69.9797 89.8192 69.8168 89.5506L67.3614 84.7408C67.245 84.4653 67.0558 84.2227 66.8118 84.0367C66.708 83.9856 66.5931 83.9578 66.4761 83.9553C66.3591 83.9528 66.2432 83.9758 66.137 84.0224L66.0145 83.7767C66.327 83.5192 66.6015 83.2232 66.8309 82.8966C67.0635 82.5538 67.2483 82.1839 67.3806 81.7962L67.7055 81.6546L71.3749 88.8391C71.4906 89.1318 71.6874 89.3896 71.9447 89.5852C72.0338 89.6448 72.139 89.6791 72.2479 89.6843C72.3568 89.6894 72.4651 89.665 72.56 89.6141L72.7354 89.9272L69.8665 91.236ZM66.2136 80.6655C66.0745 80.7316 65.9223 80.7694 65.7668 80.776C65.6114 80.7826 65.4562 80.7581 65.3114 80.704C65.165 80.6593 65.0299 80.5865 64.9142 80.4903C64.7986 80.3941 64.7049 80.2765 64.6391 80.1446C64.5703 80.0137 64.5306 79.8706 64.5226 79.7245C64.5147 79.5784 64.5387 79.4323 64.593 79.2954C64.6395 79.1545 64.7166 79.0245 64.8195 78.9138C64.9225 78.8031 65.0489 78.7142 65.1904 78.6527C65.3269 78.5842 65.4771 78.5436 65.6312 78.5337C65.7853 78.5238 65.94 78.5449 66.085 78.5953C66.2321 78.6443 66.3674 78.7207 66.4829 78.8199C66.5984 78.9191 66.6918 79.0393 66.7576 79.1732C66.8249 79.3046 66.8637 79.4475 66.8717 79.5934C66.8796 79.7393 66.8565 79.8851 66.8038 80.0223C66.7586 80.1628 66.6828 80.2928 66.5811 80.4036C66.4794 80.5145 66.3541 80.6036 66.2136 80.6655Z" fill="#161615"/>
<path d="M74.8256 88.8744L74.6166 88.579C74.7106 88.5234 74.7869 88.4447 74.8375 88.3512C74.888 88.2578 74.9109 88.1532 74.9036 88.0484C74.853 87.7409 74.721 87.4506 74.5199 87.2046L71.5788 83.0471C71.4292 82.7906 71.2085 82.5777 70.9407 82.4312C70.8301 82.398 70.7134 82.3879 70.5983 82.4016C70.4833 82.4152 70.3726 82.4523 70.2741 82.5102L70.1123 82.2782C70.3915 81.9859 70.6237 81.6562 70.8016 81.2998C70.9798 80.9374 71.1112 80.556 71.193 80.1638L71.4848 79.9729L72.5323 81.4643C72.5813 80.8215 72.7105 80.1866 72.9174 79.5727C73.0317 79.1934 73.268 78.8574 73.5933 78.6115C73.7003 78.5358 73.8241 78.4842 73.9553 78.4606C74.0865 78.437 74.2215 78.4418 74.3503 78.4751C74.6336 78.5591 74.8745 78.7388 75.0274 78.9799C75.1114 79.0902 75.1702 79.2159 75.1997 79.349C75.2293 79.4822 75.2289 79.6197 75.1989 79.7527C75.1708 79.8869 75.1146 80.0144 75.0332 80.1275C74.9518 80.2405 74.8472 80.3368 74.7256 80.4105C74.5319 80.5088 74.3237 80.5789 74.1081 80.6188C73.8765 80.6601 73.6543 80.7395 73.4515 80.8532C73.2886 80.964 73.1657 81.1196 73.0995 81.2989C73.0071 81.5387 72.9564 81.7911 72.9495 82.0463L75.9571 86.2954C76.1187 86.5667 76.3471 86.797 76.6227 86.9668C76.7236 87.0102 76.8348 87.0274 76.9451 87.0168C77.0553 87.0061 77.1605 86.9679 77.2501 86.9061L77.4662 87.1961L74.8256 88.8744Z" fill="#161615"/>
<path d="M89.565 82.7692L89.2734 82.5584C89.3411 82.4745 89.3841 82.375 89.3981 82.2701C89.412 82.1653 89.3963 82.0588 89.3526 81.9616C89.2001 81.6899 88.9778 81.4589 88.7063 81.2899L81.0547 75.788C80.825 75.5915 80.5415 75.4604 80.2367 75.4097C80.1183 75.4109 80.0017 75.4369 79.8951 75.4858C79.7886 75.5347 79.6948 75.6053 79.6205 75.6926L79.3886 75.5229C79.5555 75.1585 79.6633 74.7723 79.7085 74.3773C79.7536 73.9784 79.7404 73.5755 79.6691 73.18L79.8533 72.9411L81.2667 73.96C81.0662 73.3759 80.9904 72.7597 81.0441 72.1476C81.109 71.6084 81.3285 71.0963 81.6785 70.6667C81.9541 70.3162 82.3207 70.0393 82.7428 69.863C83.1649 69.6867 83.628 69.617 84.087 69.6606C85.2888 69.7783 86.4256 70.2353 87.35 70.9724C88.4478 71.6967 89.2679 72.7391 89.6868 73.9429C89.873 74.4193 89.9302 74.9324 89.8535 75.4351C89.7768 75.9379 89.5684 76.4143 89.2474 76.8212C88.9844 77.1667 88.6372 77.447 88.2355 77.6384C87.8074 77.8368 87.3424 77.954 86.8668 77.9832L89.7182 80.0327C89.9636 80.2398 90.2617 80.383 90.5832 80.4479C90.6935 80.4592 90.805 80.4417 90.9056 80.3974C91.0063 80.3531 91.0925 80.2837 91.1546 80.1966L91.452 80.4073L89.565 82.7692ZM81.8106 74.3489L84.3631 76.1809C85.0995 76.7733 85.9824 77.1794 86.9291 77.3613C87.2543 77.4178 87.5898 77.3865 87.8971 77.2708C88.2044 77.1551 88.471 76.9597 88.6666 76.7071C88.8912 76.4451 89.0289 76.126 89.0625 75.7899C89.096 75.4539 89.024 75.116 88.8552 74.8187C88.3099 73.9105 87.5495 73.1347 86.634 72.5522C85.852 71.9248 84.9103 71.5022 83.9025 71.3267C83.5521 71.2637 83.1901 71.2953 82.8577 71.4178C82.5253 71.5402 82.2358 71.7486 82.0223 72.0193C81.7922 72.3168 81.6558 72.6701 81.6288 73.038C81.6044 73.4819 81.6661 73.9262 81.8106 74.3489Z" fill="#161615"/>
<path d="M92.4562 71.703L92.1269 71.5336C92.1796 71.4417 92.205 71.338 92.2006 71.2334C92.1962 71.1289 92.1621 71.0274 92.1019 70.9398C91.9032 70.6956 91.6404 70.5051 91.3397 70.3873L82.4131 66.0037C82.1502 65.8485 81.8481 65.7631 81.5384 65.7565C81.424 65.7747 81.3157 65.8182 81.2223 65.8833C81.129 65.9484 81.0531 66.0335 81.0008 66.1315L80.7371 65.9992C80.8302 65.6087 80.8648 65.2077 80.8396 64.808C80.8204 64.4087 80.7367 64.0145 80.5912 63.6393L80.7543 63.3448L92.1392 68.9235C92.418 69.0851 92.7333 69.182 93.0592 69.2061C93.1708 69.1978 93.2781 69.1617 93.3703 69.1015C93.4625 69.0414 93.5363 68.9592 93.5843 68.8634L93.9206 69.0312L92.4562 71.703Z" fill="#161615"/>
<path d="M96.8086 61.7832L95.3609 61.3412C95.6412 62.1816 95.8665 63.0375 96.0354 63.9041C96.1057 64.2943 96.0883 64.6941 95.9844 65.0775C95.9294 65.2601 95.8297 65.4278 95.6932 65.5669C95.5566 65.7059 95.3873 65.8123 95.1991 65.8774C94.7372 66.01 94.2417 65.9919 93.7921 65.8258L88.3708 64.1824C88.0783 64.0752 87.7614 64.0423 87.4513 64.0868C87.3397 64.1247 87.2385 64.1858 87.155 64.2655C87.0715 64.3452 87.0077 64.4414 86.9685 64.5474L86.6928 64.4585C86.7172 64.065 86.6787 63.6703 86.5788 63.2877C86.4846 62.8926 86.3302 62.5127 86.1202 62.1599L86.2137 61.8733L93.4787 64.0757C93.7922 64.1972 94.1363 64.2286 94.4685 64.1662C94.5904 64.1162 94.6978 64.0391 94.7816 63.9414C94.8653 63.8438 94.9229 63.7284 94.9495 63.6052C95.0476 63.2778 95.0815 62.9362 95.0495 62.5973C95.02 62.1199 94.9462 61.6458 94.829 61.1806L90.2089 59.7803C89.8535 59.6493 89.473 59.5901 89.0921 59.6066C88.9703 59.627 88.8552 59.6735 88.7555 59.7428C88.6557 59.812 88.5741 59.9022 88.517 60.0061L88.195 59.9178C88.1989 59.5528 88.1551 59.1887 88.0646 58.8339C87.962 58.4233 87.8236 58.0214 87.6508 57.6325L87.7373 57.3582L95.3769 59.6662C95.77 59.8188 96.196 59.88 96.6192 59.8448C96.7568 59.8127 96.8845 59.7504 96.9918 59.6627C97.0992 59.575 97.1832 59.4646 97.237 59.3403L97.5915 59.4382L96.8086 61.7832Z" fill="#161615"/>
<path d="M96.9797 57.1166L95.1261 56.3149L95.2371 56.0095C95.9704 55.9564 96.6701 55.6965 97.2459 55.263C97.491 55.0801 97.695 54.8524 97.8457 54.5935C97.9963 54.3346 98.0907 54.0497 98.1231 53.7557C98.1529 53.5469 98.1385 53.3345 98.081 53.131C98.0234 52.9275 97.9239 52.7367 97.7879 52.57C97.6581 52.4087 97.4939 52.275 97.3062 52.1777C97.1184 52.0804 96.9113 52.0216 96.698 52.005C96.3343 51.9607 95.9668 52.0536 95.6747 52.2636C95.1752 52.7256 94.7557 53.2593 94.4316 53.8451L94.3882 53.9139C93.3322 55.5617 92.2663 56.3335 91.1903 56.2289C90.8099 56.2071 90.4392 56.1071 90.1037 55.9358C89.7682 55.7645 89.476 55.526 89.2475 55.237C88.7755 54.6138 88.5807 53.8398 88.705 53.0819C88.7551 52.6408 88.8941 52.213 89.1144 51.8215C89.362 51.3752 89.6766 50.9653 90.0485 50.6046L91.7037 51.3398L91.591 51.6336C90.9828 51.6748 90.3981 51.8729 89.9002 52.2066C89.7003 52.3464 89.5341 52.5249 89.4124 52.7302C89.2907 52.9355 89.2165 53.1629 89.1945 53.3974C89.1381 53.793 89.2466 54.1938 89.4973 54.5147C89.613 54.6693 89.7626 54.7984 89.9359 54.8931C90.1092 54.9878 90.3022 55.0458 90.5014 55.0632C90.6848 55.0809 90.8701 55.0627 91.0458 55.0097C91.2214 54.9566 91.3837 54.8699 91.5224 54.7548C91.9547 54.3532 92.3137 53.8864 92.5846 53.3734L92.7182 53.1558C93.7858 51.3813 94.8857 50.5487 96.0179 50.6578C96.4191 50.6839 96.8091 50.794 97.1599 50.9803C97.5107 51.1666 97.8135 51.4243 98.0464 51.7349C98.5445 52.4228 98.7445 53.266 98.6048 54.0897C98.5423 54.6235 98.3745 55.1414 98.1103 55.6166C97.8067 56.1627 97.4264 56.6674 96.9797 57.1166Z" fill="#161615"/>
<path d="M44.8095 55.4357C50.1752 55.4357 54.525 52.2136 54.525 48.239C54.525 44.2644 50.1752 41.0424 44.8095 41.0424C39.4438 41.0424 35.094 44.2644 35.094 48.239C35.094 52.2136 39.4438 55.4357 44.8095 55.4357Z" stroke="#161615" stroke-width="0.719668"/>
<path d="M54.8847 55.4357C60.2504 55.4357 64.6002 52.2136 64.6002 48.239C64.6002 44.2644 60.2504 41.0424 54.8847 41.0424C49.519 41.0424 45.1692 44.2644 45.1692 48.239C45.1692 52.2136 49.519 55.4357 54.8847 55.4357Z" stroke="#161615" stroke-width="0.719668"/>
</g>
<defs>
<clipPath id="clip0_177:37">
<rect width="99.245" height="95.3372" fill="white" transform="translate(0 0.898438)"/>
</clipPath>
</defs>
</svg>
