<svg width="142" height="138" viewBox="0 0 142 138" fill="none" xmlns="http://www.w3.org/2000/svg">
<g clip-path="url(#clip0_23:111)">
<path d="M33.6255 11.9998L33.9475 12.3997C33.7637 12.66 33.6354 12.9555 33.5706 13.2676C33.5057 13.5796 33.5057 13.9016 33.5706 14.2136C33.7575 15.1377 34.1138 16.0193 34.6216 16.8137L40.6216 26.9187L40.6855 26.9907C40.8475 27.2227 41.0276 27.4497 41.2166 27.6907C41.47 28.0449 41.819 28.3199 42.2227 28.4836C42.6119 28.5845 43.0225 28.5654 43.4006 28.4287L43.7227 28.8237L40.3984 31.5308L27.0767 22.3157L33.6396 37.0408L30.5005 39.5938L30.1765 39.1987C30.2947 39.0879 30.3892 38.9542 30.4543 38.8059C30.5195 38.6576 30.5538 38.4977 30.5554 38.3357C30.5418 37.9855 30.4048 37.6514 30.1685 37.3926C30.0685 37.2676 29.9596 37.1488 29.8616 37.0408L29.5295 36.7288L19.7036 27.6567C19.2072 27.1713 18.6325 26.773 18.0037 26.4788C17.8158 26.3739 17.6064 26.3132 17.3916 26.301C17.1768 26.2889 16.9619 26.3257 16.7634 26.4087L16.4294 26.0027L20.4846 22.7026L20.8086 23.0977C20.6851 23.2105 20.5869 23.3484 20.5205 23.502C20.4541 23.6555 20.4212 23.8215 20.4236 23.9888C20.4259 24.3597 20.5668 24.7164 20.8186 24.9888L21.0234 25.2136C21.1054 25.2956 21.1876 25.3856 21.2856 25.4756L31.8125 35.1826L24.6016 19.0828L25.6565 18.2278L40.3564 28.2278L33.9736 17.6028C33.8406 17.3508 33.6865 17.1237 33.5535 16.9167C33.4357 16.7331 33.3065 16.557 33.1665 16.3896C32.7959 15.8831 32.2913 15.49 31.7095 15.2546C31.4697 15.1748 31.2155 15.1481 30.9644 15.176C30.7132 15.204 30.471 15.2862 30.2546 15.4167L29.9207 15.0217L33.6255 11.9998Z" fill="#161615"/>
<path d="M10.7647 34.2125C11.1823 33.5466 11.7474 32.9856 12.4161 32.5724C13.0848 32.1592 13.8395 31.9052 14.6219 31.8297C16.4017 31.6527 18.1847 32.132 19.6358 33.1776C21.1659 34.0873 22.3135 35.5221 22.8648 37.2147C23.1065 37.9628 23.1729 38.7563 23.0591 39.5341C22.9454 40.3119 22.6545 41.0531 22.2088 41.7006C21.7942 42.3658 21.2327 42.9272 20.5674 43.3417C19.9021 43.7562 19.1505 44.0128 18.3707 44.0917C16.5957 44.2636 14.8187 43.7844 13.3707 42.7435C11.8345 41.8288 10.682 40.3882 10.1268 38.6886C9.8839 37.9434 9.81524 37.1525 9.92584 36.3766C10.0364 35.6007 10.3233 34.8602 10.7647 34.2125ZM11.3587 34.5975C11.0864 35.0005 10.9424 35.4767 10.9456 35.963C10.9488 36.4494 11.0991 36.9233 11.3768 37.3226C12.2673 38.5993 13.4281 39.6641 14.7767 40.4415C16.0689 41.3944 17.55 42.0598 19.1207 42.3927C19.6002 42.4924 20.0988 42.4434 20.5499 42.2526C21.001 42.0618 21.3833 41.7381 21.6458 41.3246C21.9152 40.9197 22.0557 40.4428 22.0491 39.9564C22.0425 39.4701 21.889 38.9972 21.6087 38.5997C20.722 37.3143 19.5608 36.242 18.2088 35.4606C16.9217 34.5157 15.4474 33.8571 13.8848 33.5287C13.4049 33.43 12.9064 33.4794 12.4551 33.6703C12.0039 33.8612 11.6211 34.1844 11.3577 34.5975H11.3587Z" fill="#161615"/>
<path d="M6.2168 42.7097L6.70068 42.8777C6.64629 43.0218 6.63102 43.1776 6.65649 43.3296C6.68196 43.4815 6.74728 43.6242 6.8457 43.7427C7.16328 44.0517 7.55264 44.2771 7.97876 44.3987L14.7927 46.8987C15.1794 47.0795 15.6082 47.1511 16.0327 47.1057C16.1847 47.0593 16.3239 46.9783 16.4395 46.8691C16.555 46.76 16.6437 46.6256 16.6987 46.4766L17.0837 46.6116C17.0181 47.1899 17.0431 47.7751 17.1577 48.3457C17.2664 48.9146 17.454 49.4655 17.7148 49.9827L17.5698 50.3826L15.2869 49.5386L15.4038 50.1226C15.9778 52.6656 16.1328 54.3027 15.8708 55.0227C15.7867 55.2838 15.6406 55.5207 15.4451 55.7131C15.2495 55.9056 15.0103 56.0478 14.7478 56.1277C14.1138 56.2904 13.4439 56.2394 12.8418 55.9827L4.8147 53.0437C4.4012 52.8652 3.95267 52.7822 3.50269 52.8015C3.35402 52.8331 3.21614 52.9029 3.10254 53.0039C2.98894 53.1049 2.90357 53.2338 2.85474 53.3777L2.37769 53.2075L3.85278 49.1506L4.33887 49.3306C4.28095 49.4742 4.26199 49.6306 4.28394 49.7839C4.30589 49.9372 4.36797 50.082 4.46387 50.2036C4.78629 50.5182 5.18217 50.7472 5.61572 50.8696L12.5479 53.4045C12.9962 53.6145 13.4943 53.695 13.9858 53.6367C14.2808 53.5667 14.5057 53.3046 14.6677 52.8726C14.8023 52.4274 14.8546 51.9614 14.8218 51.4976C14.7935 50.7557 14.7118 50.0168 14.5776 49.2866L7.18677 46.5715C6.77573 46.386 6.32411 46.3087 5.87476 46.3467C5.7249 46.377 5.58552 46.4457 5.47046 46.5464C5.3554 46.6471 5.26866 46.7761 5.21875 46.9207L4.74365 46.7507L6.2168 42.7097Z" fill="#161615"/>
<path d="M1.06383 67.7198C0.698236 67.3876 0.405042 66.9835 0.202743 66.5328C0.02639 66.1449 -0.0368318 65.7151 0.0206136 65.2928C0.0336608 65.0582 0.0978856 64.8292 0.208602 64.6219C0.319318 64.4147 0.473969 64.2342 0.661727 64.0929C1.10386 63.8371 1.62505 63.7543 2.12462 63.8607L2.19664 63.8707C1.69846 63.155 1.30832 62.3701 1.03868 61.5409C0.801818 60.8678 0.721897 60.1495 0.804793 59.4408C0.835613 59.0581 0.94479 58.6858 1.12559 58.347C1.3064 58.0083 1.55499 57.7104 1.85582 57.4718C2.1691 57.2486 2.52401 57.0904 2.89952 57.0069C3.27502 56.9235 3.66326 56.9162 4.04161 56.9857C4.58739 57.0658 5.10833 57.2675 5.56578 57.5758C6.02323 57.8841 6.40557 58.2909 6.68468 58.7667C7.67714 60.6567 8.40011 62.6763 8.83263 64.7667L10.7567 65.0187C11.3747 65.1477 12.0172 65.0879 12.6007 64.8468C12.8119 64.7306 12.9911 64.5642 13.1227 64.3622C13.2542 64.1602 13.334 63.929 13.3548 63.6888C13.4376 63.2706 13.357 62.8364 13.1297 62.4757C12.7019 62.0054 12.1607 61.6526 11.5577 61.4508C11.2171 61.3138 10.9278 61.074 10.7298 60.7648C10.5442 60.4876 10.4642 60.153 10.5047 59.8219C10.5244 59.6605 10.5768 59.5047 10.6588 59.3644C10.7408 59.224 10.8508 59.102 10.9818 59.0057C11.116 58.9063 11.2686 58.835 11.431 58.796C11.5934 58.757 11.7619 58.751 11.9266 58.7787C12.3319 58.8607 12.7072 59.0514 13.0123 59.3304C13.3174 59.6095 13.541 59.9663 13.6588 60.3627C14.0939 61.452 14.2214 62.6399 14.0277 63.7967C13.9775 64.8775 13.5369 65.9032 12.7877 66.6837C12.3706 66.9658 11.9001 67.1592 11.4051 67.2516C10.9102 67.344 10.4015 67.3334 9.91075 67.2208L2.24473 66.1957C1.94036 66.1372 1.62684 66.1472 1.32677 66.2247C1.23616 66.2493 1.15511 66.3006 1.0941 66.3719C1.03309 66.4433 0.994921 66.5315 0.984725 66.6249C0.966522 66.7634 0.994728 66.9039 1.0648 67.0248C1.15395 67.1665 1.27098 67.2885 1.4088 67.3837L1.06383 67.7198ZM8.10264 64.6608C7.80483 63.2748 7.28012 61.9476 6.54967 60.7328C6.31731 60.3814 6.01223 60.0841 5.65514 59.8607C5.29804 59.6373 4.89742 59.4931 4.47984 59.4379C3.88008 59.323 3.25884 59.4355 2.73765 59.7538C2.50689 59.8908 2.31105 60.0797 2.16563 60.3053C2.02022 60.5309 1.92931 60.7871 1.89976 61.0538C1.85746 61.5405 1.95128 62.0292 2.17076 62.4657C2.43996 63.0375 2.80366 63.56 3.24669 64.0109L8.10264 64.6608Z" fill="#161615"/>
<path d="M7.71558 86.0127L9.50464 85.4387L11.8247 92.5676L10.0356 93.1497L7.71558 86.0127Z" fill="#161615"/>
<path d="M14.3765 113.253L14.7185 112.866C15.0068 113.006 15.3213 113.085 15.6416 113.097C15.962 113.11 16.2813 113.055 16.5796 112.938C17.4584 112.599 18.2659 112.099 18.9604 111.463L27.9255 103.875L27.9866 103.803C28.1956 103.596 28.3924 103.391 28.5864 103.157C28.8966 102.85 29.1093 102.459 29.1975 102.032C29.2393 101.632 29.1517 101.229 28.9475 100.882L29.2876 100.497L32.5166 103.337L25.6375 118.009L39.0696 109.081L42.1064 111.743L41.7666 112.128C41.6376 112.032 41.4905 111.964 41.3345 111.927C41.1784 111.89 41.0167 111.886 40.8586 111.913C40.5168 111.98 40.2104 112.167 39.9956 112.442C39.8886 112.561 39.7904 112.686 39.7004 112.801C39.6104 112.916 39.5205 113.063 39.4485 113.188L32.1375 124.388C31.738 124.954 31.4369 125.583 31.2466 126.249C31.1772 126.453 31.1536 126.67 31.1772 126.884C31.2009 127.098 31.2713 127.305 31.3835 127.489L31.0415 127.874L27.1116 124.423L27.4536 124.036C27.5821 124.143 27.7322 124.221 27.8938 124.264C28.0554 124.308 28.2247 124.316 28.3896 124.288C28.7506 124.208 29.0741 124.008 29.3076 123.722C29.3686 123.65 29.4326 123.577 29.5076 123.48C29.5826 123.383 29.6426 123.291 29.7146 123.18L37.5444 111.188L22.8625 120.979L21.8396 120.079L29.2634 103.923L19.8335 111.978C19.6165 112.158 19.4195 112.339 19.2395 112.509C19.0595 112.679 18.9075 112.835 18.7805 112.978C18.3397 113.429 18.0373 113.997 17.9094 114.615C17.8705 114.863 17.8859 115.116 17.9541 115.358C18.0223 115.6 18.1417 115.824 18.3044 116.015L17.9626 116.402L14.3765 113.253Z" fill="#161615"/>
<path d="M40.0087 132.058C39.2805 131.758 38.6311 131.295 38.1108 130.704C37.5905 130.113 37.2135 129.41 37.0087 128.65C36.5398 126.921 36.7146 125.081 37.5007 123.472C38.1517 121.814 39.3772 120.446 40.9536 119.617C41.6518 119.257 42.4233 119.062 43.2087 119.046C43.9941 119.03 44.7726 119.195 45.4846 119.527C46.2081 119.824 46.8539 120.283 47.3725 120.869C47.8911 121.455 48.269 122.152 48.4768 122.906C48.9445 124.628 48.7725 126.461 47.9926 128.066C47.3388 129.73 46.1063 131.102 44.5217 131.931C43.8295 132.296 43.0625 132.498 42.28 132.52C41.4974 132.542 40.7204 132.384 40.0087 132.058ZM40.2876 131.412C40.7304 131.609 41.2224 131.67 41.6999 131.585C42.1774 131.5 42.6185 131.273 42.9658 130.935C44.078 129.843 44.9343 128.519 45.4736 127.058C46.2019 125.629 46.613 124.06 46.6787 122.458C46.6959 121.97 46.565 121.488 46.3032 121.076C46.0413 120.664 45.6607 120.34 45.2116 120.149C44.7652 119.948 44.2686 119.887 43.7868 119.973C43.305 120.059 42.8605 120.289 42.5117 120.633C41.3982 121.723 40.5384 123.045 39.9936 124.506C39.2697 125.93 38.8647 127.495 38.8066 129.092C38.7923 129.582 38.926 130.066 39.1901 130.48C39.4543 130.894 39.8365 131.218 40.2876 131.412Z" fill="#161615"/>
<path d="M49.1597 135.142L49.2495 134.642C49.4005 134.671 49.5565 134.66 49.7017 134.609C49.8468 134.558 49.9759 134.47 50.0757 134.353C50.3268 133.986 50.4838 133.564 50.5327 133.123L51.8545 125.984C51.9678 125.575 51.9678 125.144 51.8545 124.736C51.7829 124.592 51.6791 124.467 51.551 124.37C51.423 124.274 51.2744 124.208 51.1167 124.179L51.1985 123.773C51.7762 123.744 52.3461 123.626 52.8877 123.423C53.4323 123.213 53.9463 122.932 54.4165 122.587L54.8306 122.665L54.3896 125.065L54.9387 124.84C57.3487 123.85 58.9386 123.429 59.6846 123.562C59.9564 123.603 60.215 123.707 60.4387 123.867C60.6625 124.026 60.8451 124.237 60.9717 124.481C61.2342 125.078 61.2945 125.745 61.1436 126.381L59.5867 134.797C59.4759 135.229 59.4697 135.682 59.5686 136.117C59.6217 136.26 59.7123 136.386 59.8308 136.483C59.9493 136.579 60.0915 136.643 60.2427 136.666L60.1526 137.166L55.9187 136.385L56.0085 135.885C56.1587 135.916 56.3144 135.908 56.4607 135.862C56.607 135.816 56.7392 135.734 56.8447 135.623C57.0949 135.248 57.2553 134.821 57.3137 134.375L58.6516 127.102C58.7816 126.627 58.7816 126.127 58.6516 125.653C58.5624 125.498 58.436 125.368 58.2839 125.274C58.1319 125.18 57.9589 125.126 57.7805 125.116C57.3183 125.058 56.8495 125.081 56.3955 125.186C55.6691 125.342 54.954 125.546 54.2546 125.797L52.8176 133.539C52.7026 133.974 52.6957 134.43 52.7976 134.869C52.8561 135.012 52.9506 135.138 53.072 135.234C53.1934 135.33 53.3377 135.393 53.4907 135.417L53.3906 135.917L49.1597 135.142Z" fill="#161615"/>
<path d="M74.6378 136.07C74.3672 136.486 74.016 136.843 73.6048 137.121C73.2505 137.352 72.8404 137.483 72.4178 137.5C72.1828 137.523 71.9455 137.496 71.7215 137.421C71.4975 137.347 71.2917 137.225 71.1177 137.066C70.796 136.665 70.6327 136.159 70.6587 135.646V135.574C70.0315 136.184 69.3206 136.702 68.5477 137.113C67.9192 137.455 67.2215 137.651 66.5066 137.687C66.1235 137.72 65.7377 137.674 65.3736 137.55C65.0095 137.426 64.675 137.228 64.3917 136.968C64.1214 136.695 63.9082 136.37 63.7647 136.014C63.6212 135.658 63.5502 135.276 63.5557 134.892C63.5443 134.341 63.6572 133.794 63.886 133.293C64.1149 132.792 64.4539 132.349 64.8777 131.997C66.5754 130.703 68.4497 129.659 70.4437 128.897L70.3797 126.954C70.4005 126.323 70.2345 125.701 69.9026 125.165C69.7542 124.974 69.5602 124.824 69.3387 124.728C69.1171 124.632 68.8752 124.594 68.6348 124.616C68.2099 124.605 67.7961 124.754 67.4747 125.032C67.0856 125.529 66.8266 126.116 66.7208 126.739C66.6418 127.099 66.4568 127.427 66.1898 127.682C65.9428 127.909 65.6245 128.043 65.2896 128.061C65.1266 128.068 64.964 128.04 64.8121 127.981C64.6601 127.922 64.5222 127.832 64.4068 127.717C64.286 127.602 64.1895 127.464 64.1233 127.312C64.0572 127.159 64.0227 126.994 64.0218 126.828C64.0385 126.413 64.1665 126.011 64.3926 125.663C64.6188 125.315 64.9346 125.034 65.3067 124.851C66.3104 124.246 67.4608 123.928 68.6326 123.933C69.7061 123.798 70.7916 124.064 71.6817 124.679C72.0308 125.041 72.3005 125.472 72.4737 125.944C72.6469 126.416 72.72 126.919 72.6878 127.421L72.9297 135.161C72.924 135.466 72.9825 135.769 73.1016 136.05C73.1399 136.138 73.2044 136.212 73.2862 136.262C73.368 136.311 73.463 136.335 73.5587 136.329C73.6999 136.325 73.8361 136.275 73.9456 136.186C74.0729 136.075 74.1752 135.939 74.2457 135.786L74.6378 136.07ZM70.4578 129.633C69.1373 130.146 67.9143 130.882 66.8426 131.809C66.5341 132.094 66.2904 132.443 66.1277 132.831C65.9651 133.218 65.8874 133.636 65.8997 134.057C65.8897 134.668 66.1031 135.263 66.4998 135.729C66.6741 135.932 66.8926 136.093 67.1387 136.199C67.3849 136.305 67.6521 136.353 67.9197 136.34C68.4068 136.301 68.8734 136.128 69.2676 135.84C69.7875 135.481 70.2439 135.037 70.6177 134.528L70.4578 129.633Z" fill="#161615"/>
<path d="M108.012 125.69L107.69 125.29C107.874 125.029 108.002 124.734 108.067 124.422C108.132 124.11 108.132 123.788 108.067 123.476C107.88 122.552 107.524 121.67 107.016 120.876L101.016 110.771L100.952 110.699C100.79 110.467 100.61 110.24 100.421 109.999C100.168 109.645 99.8187 109.37 99.415 109.206C99.0258 109.105 98.6152 109.124 98.2371 109.261L97.915 108.866L101.239 106.159L114.561 115.374L107.998 100.649L111.137 98.0957L111.461 98.4907C111.343 98.6015 111.248 98.7352 111.183 98.8835C111.118 99.0319 111.084 99.1918 111.082 99.3538C111.096 99.7039 111.233 100.038 111.469 100.297C111.569 100.422 111.678 100.541 111.776 100.649L112.108 100.961L121.934 110.033C122.43 110.518 123.005 110.916 123.634 111.211C123.822 111.316 124.031 111.376 124.246 111.388C124.461 111.401 124.676 111.364 124.874 111.281L125.208 111.687L121.153 114.987L120.829 114.592C120.953 114.479 121.051 114.341 121.117 114.188C121.184 114.034 121.217 113.868 121.214 113.701C121.212 113.33 121.071 112.973 120.819 112.701L120.614 112.476C120.532 112.394 120.45 112.304 120.352 112.214L109.825 102.507L117.036 118.607L115.981 119.462L101.281 109.462L107.664 120.087C107.797 120.339 107.951 120.566 108.084 120.773C108.202 120.956 108.331 121.132 108.471 121.3C108.842 121.806 109.346 122.199 109.928 122.435C110.168 122.515 110.422 122.541 110.673 122.513C110.925 122.485 111.167 122.403 111.383 122.273L111.717 122.668L108.012 125.69Z" fill="#161615"/>
<path d="M130.873 103.477C130.455 104.143 129.89 104.704 129.222 105.117C128.553 105.53 127.798 105.784 127.016 105.86C125.236 106.037 123.453 105.557 122.002 104.512C120.472 103.602 119.324 102.167 118.773 100.475C118.531 99.7267 118.465 98.9332 118.579 98.1554C118.692 97.3776 118.983 96.6364 119.429 95.9889C119.843 95.3237 120.405 94.7622 121.07 94.3478C121.736 93.9333 122.487 93.6767 123.267 93.5978C125.042 93.4258 126.819 93.905 128.267 94.9459C129.803 95.8607 130.956 97.3013 131.511 99.0008C131.754 99.746 131.822 100.537 131.712 101.313C131.601 102.089 131.314 102.829 130.873 103.477ZM130.279 103.092C130.551 102.689 130.695 102.213 130.692 101.726C130.689 101.24 130.539 100.766 130.261 100.367C129.37 99.0901 128.21 98.0253 126.861 97.2479C125.569 96.2951 124.088 95.6297 122.517 95.2967C122.037 95.1971 121.539 95.2461 121.088 95.4369C120.637 95.6277 120.254 95.9513 119.992 96.3649C119.722 96.7698 119.582 97.2467 119.589 97.733C119.595 98.2193 119.749 98.6922 120.029 99.0897C120.916 100.375 122.077 101.447 123.429 102.229C124.716 103.174 126.19 103.832 127.753 104.161C128.233 104.259 128.731 104.21 129.183 104.019C129.634 103.828 130.017 103.505 130.28 103.092H130.279Z" fill="#161615"/>
<path d="M135.421 94.9797L134.937 94.8118C134.991 94.6676 135.007 94.5118 134.981 94.3599C134.956 94.2079 134.89 94.0653 134.792 93.9468C134.474 93.6377 134.085 93.4123 133.659 93.2908L126.845 90.7908C126.458 90.61 126.029 90.5383 125.605 90.5837C125.453 90.6302 125.314 90.7112 125.198 90.8203C125.083 90.9294 124.994 91.0638 124.939 91.2129L124.554 91.0779C124.62 90.4995 124.595 89.9144 124.48 89.3438C124.371 88.7749 124.184 88.2239 123.923 87.7068L124.068 87.3069L126.351 88.1509L126.234 87.5669C125.66 85.0239 125.505 83.3867 125.767 82.6667C125.851 82.4056 125.997 82.1687 126.193 81.9763C126.388 81.7839 126.627 81.6417 126.89 81.5618C127.524 81.399 128.194 81.45 128.796 81.7068L136.823 84.6458C137.236 84.8243 137.685 84.9072 138.135 84.8879C138.284 84.8563 138.422 84.7865 138.535 84.6855C138.649 84.5846 138.734 84.4557 138.783 84.3118L139.26 84.4819L137.785 88.5388L137.299 88.3589C137.357 88.2153 137.376 88.0588 137.354 87.9055C137.332 87.7522 137.27 87.6074 137.174 87.4858C136.851 87.1712 136.456 86.9422 136.022 86.8198L129.09 84.2849C128.642 84.075 128.143 83.9944 127.652 84.0527C127.357 84.1227 127.132 84.3849 126.97 84.8169C126.835 85.262 126.783 85.728 126.816 86.1919C126.844 86.9338 126.926 87.6726 127.06 88.4028L134.451 91.1179C134.862 91.3034 135.314 91.3807 135.763 91.3428C135.913 91.3125 136.052 91.2437 136.167 91.1431C136.282 91.0424 136.369 90.9133 136.419 90.7688L136.894 90.9387L135.421 94.9797Z" fill="#161615"/>
<path d="M140.574 69.9696C140.939 70.3018 141.233 70.7059 141.435 71.1566C141.611 71.5445 141.675 71.9744 141.617 72.3966C141.604 72.6312 141.54 72.8602 141.429 73.0675C141.318 73.2748 141.164 73.4553 140.976 73.5966C140.534 73.8523 140.013 73.9352 139.513 73.8287L139.441 73.8187C139.939 74.5344 140.329 75.3193 140.599 76.1486C140.836 76.8216 140.916 77.54 140.833 78.2487C140.802 78.6314 140.693 79.0037 140.512 79.3424C140.331 79.6811 140.083 79.9791 139.782 80.2177C139.469 80.4409 139.114 80.599 138.738 80.6825C138.363 80.766 137.974 80.7732 137.596 80.7037C137.05 80.6237 136.529 80.4219 136.072 80.1137C135.614 79.8054 135.232 79.3985 134.953 78.9227C133.961 77.0328 133.238 75.0132 132.805 72.9227L130.881 72.6708C130.263 72.5417 129.62 72.6015 129.037 72.8427C128.826 72.9588 128.647 73.1253 128.515 73.3273C128.384 73.5293 128.304 73.7605 128.283 74.0006C128.2 74.4189 128.281 74.853 128.508 75.2138C128.936 75.6841 129.477 76.0369 130.08 76.2387C130.421 76.3756 130.71 76.6155 130.908 76.9247C131.094 77.2019 131.173 77.5364 131.133 77.8676C131.113 78.0289 131.061 78.1847 130.979 78.3251C130.897 78.4654 130.787 78.5875 130.656 78.6837C130.522 78.7831 130.369 78.8544 130.207 78.8934C130.044 78.9324 129.876 78.9384 129.711 78.9108C129.306 78.8288 128.931 78.6381 128.625 78.359C128.32 78.08 128.097 77.7231 127.979 77.3268C127.544 76.2375 127.416 75.0496 127.61 73.8927C127.66 72.812 128.101 71.7862 128.85 71.0057C129.267 70.7237 129.738 70.5303 130.233 70.4379C130.728 70.3455 131.236 70.356 131.727 70.4686L139.393 71.4938C139.697 71.5522 140.011 71.5423 140.311 71.4647C140.402 71.4402 140.483 71.3889 140.544 71.3175C140.605 71.2462 140.643 71.1579 140.653 71.0646C140.671 70.9261 140.643 70.7855 140.573 70.6647C140.484 70.5229 140.367 70.4009 140.229 70.3058L140.574 69.9696ZM133.535 73.0287C133.833 74.4146 134.358 75.7418 135.088 76.9567C135.32 77.308 135.625 77.6053 135.983 77.8287C136.34 78.0521 136.74 78.1963 137.158 78.2516C137.758 78.3665 138.379 78.2539 138.9 77.9357C139.131 77.7986 139.327 77.6098 139.472 77.3842C139.617 77.1586 139.708 76.9024 139.738 76.6356C139.78 76.1489 139.686 75.6602 139.467 75.2238C139.198 74.6519 138.834 74.1294 138.391 73.6786L133.535 73.0287Z" fill="#161615"/>
<path d="M133.922 51.6768L132.133 52.2507L129.813 45.1218L131.602 44.5398L133.922 51.6768Z" fill="#161615"/>
<path d="M127.261 24.4368L126.919 24.8237C126.631 24.6835 126.316 24.6047 125.996 24.5923C125.676 24.5799 125.356 24.6342 125.058 24.7517C124.179 25.0903 123.372 25.5907 122.677 26.2268L113.712 33.8147L113.651 33.8867C113.442 34.0937 113.245 34.2987 113.051 34.5327C112.741 34.8392 112.528 35.2306 112.44 35.6577C112.398 36.0579 112.486 36.4609 112.69 36.8076L112.35 37.1926L109.121 34.3528L116 19.6807L102.568 28.6086L99.5312 25.9468L99.8711 25.5618C100 25.657 100.147 25.7253 100.303 25.7622C100.459 25.7992 100.621 25.8039 100.779 25.7766C101.121 25.7097 101.427 25.5221 101.642 25.2478C101.749 25.1288 101.847 25.0037 101.937 24.8887C102.027 24.7737 102.117 24.6267 102.189 24.5017L109.5 13.3018C109.9 12.7359 110.201 12.1067 110.391 11.4407C110.46 11.2366 110.484 11.0197 110.46 10.8054C110.437 10.5912 110.366 10.3847 110.254 10.2007L110.596 9.81567L114.526 13.2666L114.184 13.6538C114.056 13.5466 113.905 13.4686 113.744 13.425C113.582 13.3815 113.413 13.3734 113.248 13.4016C112.887 13.4815 112.564 13.6811 112.33 13.9678C112.269 14.0398 112.205 14.1127 112.13 14.2097C112.055 14.3067 111.995 14.3988 111.923 14.5098L104.093 26.5017L118.775 16.7107L119.798 17.6106L112.374 33.7666L121.804 25.7117C122.021 25.5317 122.218 25.3507 122.398 25.1807C122.578 25.0107 122.73 24.8547 122.857 24.7117C123.298 24.2605 123.6 23.6924 123.728 23.0747C123.767 22.8267 123.752 22.5732 123.684 22.3315C123.615 22.0899 123.496 21.8659 123.333 21.6748L123.675 21.2876L127.261 24.4368Z" fill="#161615"/>
<path d="M101.629 5.6318C102.357 5.93129 103.007 6.39454 103.527 6.98556C104.047 7.57658 104.424 8.27944 104.629 9.03976C105.098 10.7683 104.923 12.6084 104.137 14.2177C103.486 15.8755 102.26 17.2438 100.684 18.0727C99.9859 18.4327 99.2144 18.6279 98.429 18.6435C97.6436 18.6591 96.8651 18.4948 96.1531 18.1628C95.4296 17.8652 94.7838 17.406 94.2652 16.8203C93.7466 16.2346 93.3687 15.5378 93.1609 14.7837C92.6932 13.0617 92.8652 11.2287 93.6451 9.62374C94.2989 7.95949 95.5314 6.58711 97.116 5.75875C97.8082 5.39303 98.5752 5.19142 99.3577 5.16939C100.14 5.14737 100.917 5.30558 101.629 5.6318ZM101.35 6.27779C100.907 6.08004 100.415 6.01965 99.9378 6.1047C99.4603 6.18974 99.0192 6.41636 98.6719 6.75484C97.5597 7.84598 96.7034 9.17002 96.1641 10.6318C95.4358 12.0604 95.0247 13.6294 94.959 15.2317C94.9418 15.7196 95.0727 16.2016 95.3345 16.6137C95.5964 17.0259 95.977 17.349 96.4261 17.5407C96.8725 17.7416 97.369 17.8029 97.8509 17.7165C98.3327 17.6301 98.7772 17.4003 99.126 17.0568C100.24 15.9664 101.099 14.644 101.644 13.1838C102.368 11.7594 102.773 10.1946 102.831 8.59786C102.845 8.10723 102.712 7.62341 102.448 7.20968C102.183 6.79595 101.801 6.47135 101.35 6.27779Z" fill="#161615"/>
<path d="M92.478 2.54785L92.3882 3.04785C92.2372 3.01855 92.0812 3.02979 91.936 3.08057C91.7909 3.13134 91.6618 3.2199 91.562 3.33691C91.3109 3.7031 91.1539 4.12555 91.105 4.56689L89.7832 11.7058C89.6699 12.1141 89.6699 12.5456 89.7832 12.9539C89.8548 13.0974 89.9586 13.2224 90.0867 13.3191C90.2147 13.4157 90.3633 13.4812 90.521 13.5107L90.4392 13.9167C89.8615 13.9455 89.2915 14.0637 88.75 14.2668C88.2054 14.4762 87.6914 14.7573 87.2212 15.1028L86.8071 15.0249L87.248 12.6248L86.699 12.8499C84.289 13.8399 82.6991 14.26 81.9531 14.127C81.6813 14.0867 81.4227 13.9823 81.199 13.8228C80.9752 13.6632 80.7926 13.4527 80.666 13.2087C80.4035 12.611 80.3432 11.944 80.4941 11.3088L82.051 2.89282C82.1618 2.4605 82.168 2.00794 82.0691 1.57275C82.016 1.4294 81.9254 1.30309 81.8069 1.20654C81.6884 1.11 81.5462 1.04691 81.395 1.02393L81.4851 0.523926L85.719 1.30493L85.6292 1.80493C85.479 1.77378 85.3233 1.7813 85.177 1.82715C85.0307 1.873 84.8985 1.95563 84.793 2.06689C84.5428 2.44134 84.3824 2.86844 84.324 3.31494L82.9861 10.5879C82.8561 11.0621 82.8561 11.5626 82.9861 12.0369C83.0753 12.1916 83.2017 12.3218 83.3538 12.4155C83.5058 12.5093 83.6788 12.5636 83.8572 12.5737C84.3194 12.6317 84.7882 12.6082 85.2422 12.5039C85.9686 12.3477 86.6837 12.1435 87.3831 11.8928L88.8201 4.15088C88.9351 3.71582 88.942 3.25913 88.8401 2.8208C88.7816 2.6774 88.6871 2.5515 88.5657 2.45532C88.4443 2.35915 88.3 2.29612 88.147 2.27197L88.2471 1.77197L92.478 2.54785Z" fill="#161615"/>
<path d="M66.9999 1.61984C67.2705 1.20392 67.6217 0.846509 68.0329 0.568817C68.3872 0.337796 68.7973 0.206694 69.2199 0.189667C69.4549 0.166512 69.6922 0.193252 69.9162 0.268036C70.1402 0.34282 70.346 0.464049 70.52 0.623749C70.8417 1.02492 71.005 1.5301 70.9789 2.04367V2.11569C71.6062 1.50538 72.3171 0.987144 73.09 0.57663C73.7185 0.234223 74.4162 0.0380449 75.131 0.00265503C75.5142 -0.0308332 75.9 0.0158319 76.2641 0.139618C76.6282 0.263404 76.9627 0.461593 77.246 0.721649C77.5163 0.994791 77.7294 1.31906 77.873 1.67551C78.0165 2.03195 78.0875 2.4136 78.082 2.79782C78.0934 3.34871 77.9805 3.89499 77.7517 4.39621C77.5228 4.89743 77.1838 5.34071 76.76 5.69284C75.0623 6.98688 73.188 8.03068 71.194 8.79269L71.258 10.7358C71.2372 11.3661 71.4032 11.9883 71.735 12.5246C71.8835 12.715 72.0775 12.8652 72.299 12.9612C72.5206 13.0571 72.7624 13.0957 73.0029 13.0737C73.4278 13.0841 73.8416 12.9358 74.163 12.6577C74.5521 12.16 74.8111 11.5734 74.9169 10.9507C74.9959 10.5904 75.1809 10.2621 75.4479 10.0078C75.6949 9.78083 76.0132 9.64669 76.3481 9.62863C76.5111 9.62183 76.6736 9.64901 76.8256 9.70822C76.9776 9.76743 77.1155 9.85737 77.2309 9.97263C77.3517 10.0872 77.4482 10.2251 77.5143 10.3779C77.5805 10.5307 77.615 10.6953 77.6159 10.8618C77.5992 11.2764 77.4712 11.6789 77.2451 12.0268C77.0189 12.3747 76.7031 12.6552 76.331 12.8388C75.3273 13.4436 74.1769 13.7611 73.0051 13.7568C71.9316 13.8914 70.8461 13.6258 69.956 13.0107C69.6069 12.6487 69.3372 12.2179 69.164 11.7458C68.9908 11.2737 68.9177 10.7706 68.9499 10.2688L68.7079 2.52878C68.7137 2.22365 68.6552 1.92058 68.5361 1.63962C68.4978 1.55177 68.4333 1.47787 68.3515 1.42795C68.2697 1.37802 68.1747 1.35469 68.079 1.36081C67.9378 1.36422 67.8016 1.41435 67.6921 1.50363C67.5648 1.61413 67.4625 1.75064 67.392 1.90378L66.9999 1.61984ZM71.1799 8.05661C72.5004 7.54325 73.7234 6.80747 74.7951 5.88083C75.1036 5.59512 75.3473 5.2466 75.51 4.85886C75.6726 4.47111 75.7503 4.05308 75.738 3.63278C75.748 3.02102 75.5346 2.42646 75.1379 1.96066C74.9636 1.75711 74.7451 1.59636 74.499 1.49045C74.2528 1.38453 73.9856 1.33643 73.718 1.34982C73.2309 1.3881 72.7643 1.56124 72.3701 1.84982C71.8502 2.20895 71.3938 2.65239 71.02 3.16183L71.1799 8.05661Z" fill="#161615"/>
<path d="M64 78.5C71.4558 78.5 77.5 74.0228 77.5 68.5C77.5 62.9772 71.4558 58.5 64 58.5C56.5442 58.5 50.5 62.9772 50.5 68.5C50.5 74.0228 56.5442 78.5 64 78.5Z" stroke="#161615"/>
<path d="M78 78.5C85.4558 78.5 91.5 74.0228 91.5 68.5C91.5 62.9772 85.4558 58.5 78 58.5C70.5442 58.5 64.5 62.9772 64.5 68.5C64.5 74.0228 70.5442 78.5 78 78.5Z" stroke="#161615"/>
</g>
<defs>
<clipPath id="clip0_23:111">
<rect width="141.638" height="137.69" fill="white"/>
</clipPath>
</defs>
</svg>
