<svg width="112" height="38" viewBox="0 0 112 38" fill="none" xmlns="http://www.w3.org/2000/svg">
<path d="M0.389648 37V36.0479C1.46387 35.7874 2.35091 35.0632 3.05078 33.875C3.76693 32.6706 4.27962 31.0104 4.58887 28.8945L7.81152 7.36133C7.81152 7.34505 7.81152 7.28809 7.81152 7.19043C7.84408 6.65332 7.86035 6.10807 7.86035 5.55469C7.86035 4.54557 7.68945 3.77246 7.34766 3.23535C7.00586 2.69824 6.41992 2.26693 5.58984 1.94141V0.989258H13.5488L21.8984 29.8467L29.7109 0.989258H37.2061V1.94141C36.5387 2.02279 36.0179 2.29134 35.6436 2.74707C35.2855 3.2028 35.1064 3.80501 35.1064 4.55371C35.1064 4.84668 35.1146 5.13965 35.1309 5.43262C35.1634 5.70931 35.2041 5.986 35.2529 6.2627L38.7441 30.7988C38.972 32.3613 39.3219 33.5902 39.7939 34.4854C40.266 35.3805 40.8356 35.9014 41.5029 36.0479V37H31.8105V36.0479C32.4779 35.999 33.0068 35.7305 33.3975 35.2422C33.8044 34.7539 34.0078 34.1191 34.0078 33.3379C34.0078 33.1589 33.9997 32.9717 33.9834 32.7764C33.9671 32.5648 33.9427 32.3369 33.9102 32.0928L30.1504 5.79883L21.6543 37.3906H19.1396L9.74023 5.79883L6.44434 28.5527C6.36296 29.0736 6.29785 29.5618 6.24902 30.0176C6.21647 30.4733 6.2002 30.8802 6.2002 31.2383C6.2002 32.6543 6.45247 33.7692 6.95703 34.583C7.47786 35.3805 8.24284 35.8688 9.25195 36.0479V37H0.389648ZM54.2227 36.3896C56.0944 36.3896 57.4941 35.4619 58.4219 33.6064C59.3496 31.7347 59.8135 28.9189 59.8135 25.1592C59.8135 21.2367 59.3496 18.3314 58.4219 16.4434C57.5104 14.5553 56.1107 13.6113 54.2227 13.6113C52.3509 13.6113 50.943 14.5553 49.999 16.4434C49.0713 18.3151 48.6074 21.1309 48.6074 24.8906C48.6074 28.7806 49.0713 31.6696 49.999 33.5576C50.9268 35.4456 52.3346 36.3896 54.2227 36.3896ZM54.2227 37.708C51.1465 37.708 48.6074 36.5199 46.6055 34.1436C44.6035 31.7673 43.6025 28.7155 43.6025 24.9883C43.6025 21.2773 44.5954 18.2419 46.5811 15.8818C48.583 13.5218 51.1302 12.3418 54.2227 12.3418C57.2988 12.3418 59.8298 13.5218 61.8154 15.8818C63.8174 18.2419 64.8184 21.2773 64.8184 24.9883C64.8184 28.7155 63.8174 31.7673 61.8154 34.1436C59.8135 36.5199 57.2826 37.708 54.2227 37.708ZM67.9434 37V36.0479C68.5944 36.0153 69.0583 35.7549 69.335 35.2666C69.6279 34.762 69.7744 33.9564 69.7744 32.8496V19.3975C69.7744 18.307 69.6279 17.5501 69.335 17.127C69.0583 16.6875 68.5537 16.4271 67.8213 16.3457V15.5889C68.8792 15.3285 69.8639 14.9215 70.7754 14.3682C71.7031 13.8148 72.5413 13.1393 73.29 12.3418H74.0713V16.8584L74.999 16.2725C79.068 13.652 81.8105 12.3418 83.2266 12.3418C84.3496 12.3418 85.2285 12.7568 85.8633 13.5869C86.5143 14.417 86.8398 15.5563 86.8398 17.0049V32.8496C86.8398 33.9889 86.9782 34.8027 87.2549 35.291C87.5316 35.763 88.0036 36.0153 88.6709 36.0479V37H80.6875V36.0479C81.3548 36.0153 81.8268 35.763 82.1035 35.291C82.3965 34.8027 82.543 33.9889 82.543 32.8496V19.1533C82.543 17.8675 82.3721 16.9886 82.0303 16.5166C81.7048 16.0446 81.1188 15.8086 80.2725 15.8086C79.6377 15.8086 78.7995 16.012 77.7578 16.4189C76.7324 16.8258 75.5036 17.4362 74.0713 18.25V32.8496C74.0713 33.9889 74.2096 34.8027 74.4863 35.291C74.7793 35.763 75.2594 36.0153 75.9268 36.0479V37H67.9434ZM104.467 23.0107C101.163 24.3779 98.8841 25.6556 97.6309 26.8438C96.3776 28.0156 95.751 29.3828 95.751 30.9453C95.751 32.2311 96.0846 33.2809 96.752 34.0947C97.4355 34.8923 98.3063 35.291 99.3643 35.291C100.146 35.291 100.984 35.0143 101.879 34.4609C102.79 33.8913 103.653 33.1019 104.467 32.0928V23.0107ZM111.815 35.1934C111.213 36.0234 110.554 36.6501 109.838 37.0732C109.138 37.4964 108.397 37.708 107.616 37.708C106.558 37.708 105.769 37.415 105.248 36.8291C104.727 36.2432 104.467 35.3643 104.467 34.1924V34.0459C103.132 35.234 101.798 36.1455 100.463 36.7803C99.1445 37.3988 97.875 37.708 96.6543 37.708C95.0267 37.708 93.7327 37.2279 92.7725 36.2676C91.8285 35.291 91.3564 33.9889 91.3564 32.3613C91.3564 30.3431 92.2272 28.5853 93.9688 27.0879C95.7266 25.5742 99.2259 23.7594 104.467 21.6436V18.0547C104.467 16.5573 104.206 15.4424 103.686 14.71C103.165 13.9775 102.392 13.6113 101.366 13.6113C100.438 13.6113 99.7142 13.8473 99.1934 14.3193C98.6725 14.7751 98.1761 15.8167 97.7041 17.4443C97.5088 18.1442 97.1589 18.7139 96.6543 19.1533C96.1497 19.5765 95.5882 19.7881 94.9697 19.7881C94.335 19.7881 93.7979 19.5684 93.3584 19.1289C92.9189 18.6732 92.6992 18.1117 92.6992 17.4443C92.6992 16.0609 93.5293 14.8646 95.1895 13.8555C96.8659 12.8464 98.9411 12.3418 101.415 12.3418C104.003 12.3418 105.867 12.8626 107.006 13.9043C108.145 14.946 108.715 16.6631 108.715 19.0557V33.4111C108.715 34.1761 108.804 34.7376 108.983 35.0957C109.162 35.4375 109.439 35.6084 109.813 35.6084C110.09 35.6084 110.326 35.5352 110.521 35.3887C110.733 35.2259 110.928 34.9818 111.107 34.6562L111.815 35.1934Z" fill="white"/>
</svg>
