<svg width="177" height="49" viewBox="0 0 177 49" fill="none" xmlns="http://www.w3.org/2000/svg">
<path d="M53.9773 4.09308V44.79L57.875 49H41.1581L44.9981 44.8777V14.6181C44.5361 17.0155 44.0164 19.1498 43.4678 21.0209C41.4875 29.0428 37.5797 36.4447 32.0922 42.568V49H25.0186L8.18619 7.42602V41.4278L14.9711 49H0.708313L7.551 41.5155V6.02268L4.28846 0H14.769L32.0922 42.0418C34.6008 39.2859 36.728 36.1976 38.4152 32.8616C40.3882 29.0649 41.9562 25.0662 43.0925 20.9332C44.0689 17.6258 44.7739 14.2424 45.2002 10.8174V4.97017L40.956 0H57.875L53.9773 4.09308Z" fill="#1D1D1B"/>
<path d="M61.9587 31.2991C61.9373 28.2093 62.7307 25.1682 64.2593 22.4805C65.7879 19.7929 67.998 17.553 70.6683 15.9853C73.3713 14.4097 76.4502 13.5897 79.5811 13.6115C81.9649 13.5964 84.3265 14.0693 86.5197 15.001C88.638 15.8773 90.562 17.162 92.1811 18.7815C93.8003 20.401 95.0828 22.3233 95.9551 24.4383C97.0154 26.9611 97.4804 29.6931 97.3143 32.4235C97.1482 35.1539 96.3554 37.8098 94.997 40.1863C93.4453 42.8582 91.2245 45.0826 88.5519 46.6418C85.8267 48.1873 82.7453 49 79.6101 49C76.4749 49 73.3935 48.1873 70.6683 46.6418C68.0844 45.0595 65.9465 42.848 64.4555 40.2152C62.8403 37.5186 61.9782 34.44 61.9587 31.2991ZM69.5651 23.5409C69.5752 26.4926 70.0554 29.4239 70.9876 32.2254C71.8268 34.9442 73.0175 37.5425 74.5295 39.9547C75.8102 42.0141 77.407 43.8603 79.2617 45.426C80.5881 46.6797 82.3148 47.4279 84.1391 47.5392C84.9821 47.5739 85.8184 47.3761 86.556 46.9675C87.2936 46.5589 87.9038 45.9554 88.3197 45.2233C89.353 43.3688 89.8458 41.2632 89.7422 39.1441C89.7282 36.1951 89.2581 33.2658 88.3487 30.4596C87.4879 27.7441 86.2882 25.1474 84.7778 22.7303C83.4972 20.6709 81.9003 18.8247 80.0456 17.259C78.7139 16.009 76.9921 15.2527 75.1682 15.1168C74.318 15.0828 73.4748 15.2838 72.732 15.6976C71.9891 16.1114 71.3754 16.7219 70.9586 17.4617C69.9453 19.3229 69.4633 21.4255 69.5651 23.5409Z" fill="#1D1D1B"/>
<path d="M133.181 23.6152V44.7055L136.819 49H120.958L124.542 44.7055V23.6741C124.56 21.9785 123.952 20.3424 122.847 19.1148C122.357 18.526 121.754 18.0538 121.079 17.7293C120.404 17.4048 119.672 17.2354 118.931 17.2323C117.915 17.2654 116.918 17.5294 116.007 18.0065C115.097 18.4836 114.294 19.1625 113.653 19.9972V44.7055L117.264 49H101.431L105.014 44.7055V21.1738L101.431 18.6148L113.653 13.8202V19.2913C114.977 17.6241 116.608 16.2606 118.447 15.2844C120.286 14.3082 122.294 13.7399 124.347 13.6143C125.546 13.5797 126.738 13.8254 127.838 14.3338C128.937 14.8422 129.917 15.6008 130.708 16.5557C132.352 18.4893 133.236 21.0144 133.181 23.6152Z" fill="#1D1D1B"/>
<path d="M139.549 36.9502C139.506 35.3236 139.813 33.7063 140.451 32.2026C141.088 30.6989 142.042 29.3422 143.25 28.2201C144.433 27.0918 145.834 26.2025 147.37 25.6032C148.907 25.004 150.55 24.7066 152.205 24.7281C153.436 24.6992 154.664 24.8563 155.846 25.1937C156.613 25.3774 157.347 25.6717 158.025 26.0667C158.578 26.4722 159.097 26.9198 159.577 27.4053C159.169 26.8056 158.71 26.2409 158.204 25.7175C157.566 25.0757 156.889 24.4731 156.174 23.9133C155.275 23.2335 154.266 22.7027 153.19 22.3418C152.023 21.9294 150.79 21.7225 149.548 21.7307H144.146C145.699 19.2238 147.957 17.2038 150.653 15.9107C153.524 14.4034 156.734 13.6135 159.995 13.6118C161.573 13.5985 163.147 13.7744 164.681 14.1356C166.075 14.4851 167.404 15.0447 168.621 15.7943C169.803 16.5062 170.771 17.5101 171.427 18.7043C172.129 20.066 172.477 21.5749 172.441 23.0985V44.5453L176.292 48.7939H163.069V40.2676C162.246 42.8814 160.608 45.1801 158.383 46.8442C156.342 48.2765 153.883 49.0314 151.369 48.9976C149.779 49.0295 148.2 48.735 146.735 48.1334C145.269 47.5318 143.95 46.6365 142.862 45.5056C141.756 44.3648 140.893 43.021 140.325 41.5522C139.756 40.0835 139.492 38.5191 139.549 36.9502ZM148.145 33.2253C148.15 36.0985 149.102 38.894 150.862 41.1988C151.513 42.2647 152.422 43.1588 153.509 43.8031C154.597 44.4473 155.829 44.8221 157.1 44.8945C157.985 44.9224 158.862 44.7185 159.638 44.3039C160.415 43.8894 161.064 43.2794 161.517 42.5374C162.563 40.8768 163.091 38.9561 163.039 37.0084C163.03 35.2271 162.654 33.4658 161.935 31.8285C161.209 30.1154 160.098 28.5837 158.682 27.3471C157.454 26.1701 155.807 25.5025 154.085 25.4847C153.225 25.4691 152.374 25.6697 151.616 26.0672C150.858 26.4648 150.218 27.0458 149.757 27.7545C148.656 29.3735 148.094 31.2836 148.145 33.2253ZM153.428 21.8472L155.04 22.5456C155.769 22.9377 156.459 23.3956 157.1 23.9133C157.937 24.5551 158.707 25.2765 159.398 26.0667C160.219 27.0574 160.929 28.1304 161.517 29.2677C162.235 30.6493 162.795 32.1032 163.189 33.6036V19.6937C163.189 16.1435 162.054 14.3684 159.786 14.3684C158.988 14.3729 158.204 14.5723 157.505 14.9485C156.806 15.3247 156.215 15.8656 155.786 16.5218C154.649 18.1284 153.847 19.9381 153.428 21.8472Z" fill="#1D1D1B"/>
</svg>
