<svg width="23" height="23" viewBox="0 0 23 23" fill="none" xmlns="http://www.w3.org/2000/svg">
<g clip-path="url(#clip0_177:148)">
<path d="M22.9416 6.76273C22.9242 5.80948 22.7447 4.86613 22.4108 3.97308C22.1147 3.21017 21.6628 2.51731 21.0841 1.93864C20.5053 1.35997 19.8123 0.908178 19.0493 0.61206C18.156 0.27861 17.2126 0.0991662 16.2592 0.0813728C15.019 0.0141523 14.628 6.3941e-07 11.5053 5.02913e-07C8.38262 3.66416e-07 7.98985 0.014152 6.76377 0.0672207C5.81037 0.0846374 4.86689 0.264093 3.97369 0.597908C3.20455 0.886732 2.50819 1.34084 1.93377 1.92817C1.34882 2.50383 0.896059 3.19977 0.606846 3.96777C0.27217 4.86073 0.0915015 5.80401 0.0725382 6.75742C0.0141535 7.99569 -3.66282e-07 8.37956 -5.02758e-07 11.5018C-6.39235e-07 14.624 0.0141532 15.0149 0.06723 16.2426C0.0846151 17.1958 0.2641 18.1392 0.597999 19.0322C0.894067 19.7952 1.34589 20.4881 1.92466 21.0668C2.50343 21.6455 3.19645 22.0972 3.95954 22.3932C4.85285 22.7267 5.79626 22.9061 6.74961 22.9239C7.97569 22.9788 8.36669 22.9912 11.4912 22.9912C14.6156 22.9912 15.0048 22.977 16.2327 22.9239C17.1861 22.9066 18.1296 22.7271 19.0228 22.3933C19.7861 22.0976 20.4793 21.646 21.0581 21.0673C21.6369 20.4885 22.0886 19.7954 22.3843 19.0322C22.7177 18.139 22.8971 17.1958 22.9151 16.2426C22.9682 15.0167 22.9823 14.6258 22.9823 11.5018C22.9823 8.37779 22.9965 7.98862 22.9416 6.76273ZM20.8698 16.1524C20.8623 16.8816 20.7282 17.6041 20.4735 18.2875C20.2818 18.7838 19.9884 19.2346 19.6121 19.6108C19.2358 19.9871 18.785 20.2805 18.2885 20.4722C17.6048 20.7257 16.8823 20.8591 16.1531 20.8666C14.9394 20.9215 14.5767 20.9339 11.5071 20.9339C8.43746 20.9339 8.06946 20.9197 6.86108 20.8666C6.13179 20.8597 5.40924 20.7262 4.72561 20.4722C4.22618 20.2891 3.77444 19.9959 3.404 19.6142C3.02325 19.243 2.73011 18.7916 2.54592 18.2928C2.29235 17.6091 2.15887 16.8868 2.15138 16.1577C2.09654 14.9442 2.08415 14.5798 2.08415 11.5124C2.08415 8.44501 2.09831 8.0753 2.15138 6.8671C2.15834 6.13792 2.29183 5.41549 2.54592 4.73196C2.72919 4.23144 3.02451 3.77944 3.40931 3.41055C3.78044 3.02973 4.23198 2.73661 4.73092 2.55261C5.41461 2.29854 6.13705 2.16449 6.86638 2.15636C8.08008 2.10329 8.44454 2.08914 11.5124 2.08914C14.5802 2.08914 14.95 2.10329 16.1584 2.15636C16.8878 2.16395 17.6103 2.29802 18.2938 2.55261C18.7933 2.73563 19.245 3.02889 19.6155 3.41055C19.9962 3.78174 20.2893 4.23318 20.4735 4.73197C20.7277 5.41553 20.8618 6.13787 20.8698 6.8671C20.9229 8.0806 20.9371 8.44324 20.9371 11.5124C20.9371 14.5815 20.9247 14.9406 20.8698 16.1524Z" fill="#C4C4C4"/>
<path d="M11.5037 5.59351C10.335 5.59351 9.19249 5.94002 8.22073 6.58923C7.24896 7.23845 6.49155 8.1612 6.0443 9.24081C5.59704 10.3204 5.48002 11.5084 5.70803 12.6545C5.93604 13.8006 6.49884 14.8533 7.32526 15.6796C8.15168 16.5059 9.2046 17.0687 10.3509 17.2966C11.4972 17.5246 12.6853 17.4076 13.7651 16.9604C14.8449 16.5132 15.7677 15.7559 16.417 14.7843C17.0664 13.8127 17.4129 12.6704 17.4129 11.5018C17.4125 9.93498 16.7897 8.43245 15.6816 7.32453C14.5735 6.2166 13.0708 5.59398 11.5037 5.59351ZM11.5037 15.3352C10.7454 15.3352 10.0042 15.1103 9.37371 14.6891C8.74323 14.2679 8.25182 13.6692 7.96164 12.9688C7.67146 12.2683 7.59552 11.4976 7.74346 10.754C7.89139 10.0104 8.25654 9.32736 8.79272 8.79125C9.32891 8.25515 10.0121 7.89006 10.7558 7.74215C11.4995 7.59424 12.2703 7.67015 12.9709 7.96029C13.6714 8.25042 14.2702 8.74175 14.6915 9.37214C15.1128 10.0025 15.3376 10.7437 15.3376 11.5018C15.3376 12.5185 14.9337 13.4935 14.2147 14.2124C13.4957 14.9313 12.5205 15.3352 11.5037 15.3352Z" fill="#C4C4C4"/>
<path d="M19.0278 5.36001C19.0278 5.63291 18.9469 5.89968 18.7952 6.12659C18.6436 6.35349 18.4281 6.53034 18.1759 6.63477C17.9238 6.7392 17.6463 6.76653 17.3786 6.71329C17.1109 6.66005 16.865 6.52864 16.672 6.33567C16.479 6.1427 16.3476 5.89686 16.2943 5.6292C16.2411 5.36155 16.2684 5.08411 16.3729 4.83199C16.4773 4.57987 16.6542 4.36438 16.8811 4.21276C17.1081 4.06115 17.3749 3.98022 17.6478 3.98022C17.8291 3.98022 18.0085 4.01592 18.1759 4.08526C18.3434 4.15461 18.4955 4.25624 18.6236 4.38436C18.7518 4.51249 18.8534 4.66459 18.9228 4.83199C18.9921 4.99939 19.0278 5.17881 19.0278 5.36001Z" fill="#C4C4C4"/>
</g>
<defs>
<clipPath id="clip0_177:148">
<rect width="23" height="23" fill="white" transform="translate(23) rotate(90)"/>
</clipPath>
</defs>
</svg>
